<svg width="165" height="115" viewBox="0 0 165 115" fill="none" xmlns="http://www.w3.org/2000/svg">
<path fill-rule="evenodd" clip-rule="evenodd" d="M155.942 4.71442C157.4 11.4097 158.478 18.1319 159.886 24.8277C160.174 26.2047 162.264 30.4451 161.723 31.4563C160.964 32.8737 155.47 31.6626 154.187 31.4118C147.605 30.1234 141.193 28.3278 134.729 26.5263C133.978 26.3172 129.324 25.4323 129.104 24.8372C128.269 22.5751 132.597 20.011 133.894 18.8662C139.558 13.8693 147.148 6.86999 154.276 3.3821" fill="#1081E8"/>
<path d="M155.942 4.71442C157.4 11.4097 158.478 18.1319 159.886 24.8277C160.174 26.2047 162.264 30.4451 161.723 31.4563C160.964 32.8737 155.47 31.6626 154.187 31.4118C147.605 30.1234 141.193 28.3278 134.729 26.5263C133.978 26.3172 129.324 25.4323 129.104 24.8372C128.269 22.5751 132.597 20.011 133.894 18.8662C139.558 13.8693 147.148 6.86999 154.276 3.3821" stroke="#1081E8" stroke-width="5" stroke-miterlimit="1.5" stroke-linecap="round" stroke-linejoin="round"/>
<path d="M147.12 26.8359C145.84 47.7895 134.498 75.913 114.4 87.681C105.282 93.0201 76.9423 97.6347 73.1139 82.0789C68.9199 65.0347 100.19 70.1981 99.577 85.8039C99.0343 99.6027 84.9569 107.135 70.8827 109.303C46.0095 113.133 22.7741 106.412 2.87545 90.9357" stroke="#1081E8" stroke-width="5" stroke-miterlimit="1.5" stroke-linecap="round" stroke-linejoin="round"/>
</svg>
