<svg width="590" height="509" viewBox="0 0 590 509" fill="none" xmlns="http://www.w3.org/2000/svg">
<g clip-path="url(#clip0_3658_3658)">
<path d="M583.276 463.464H535.335V463.826H583.276V463.464Z" fill="#EBEBEB"/>
<path d="M411.487 467.4H398.908V467.762H411.487V467.4Z" fill="#EBEBEB"/>
<path d="M533.888 450.034H506.11V450.396H533.888V450.034Z" fill="#EBEBEB"/>
<path d="M70.5007 452.465H7.9834V452.827H70.5007V452.465Z" fill="#EBEBEB"/>
<path d="M92.5601 452.465H83.3975V452.827H92.5601V452.465Z" fill="#EBEBEB"/>
<path d="M257.951 458.571H122.35V458.933H257.951V458.571Z" fill="#EBEBEB"/>
<path d="M275.104 375.633H-4.37836C-6.57042 375.633 -8.67271 374.763 -10.2227 373.213C-11.7728 371.663 -12.6436 369.561 -12.6436 367.37V-25.4436C-12.6245 -27.6227 -11.7453 -29.706 -10.1973 -31.2401C-8.64933 -32.7742 -6.55794 -33.6348 -4.37836 -33.6348H275.104C277.296 -33.6348 279.398 -32.7641 280.948 -31.2144C282.498 -29.6647 283.369 -27.5629 283.369 -25.3713V367.37C283.369 369.561 282.498 371.663 280.948 373.213C279.398 374.763 277.296 375.633 275.104 375.633V375.633ZM-4.37836 -33.3453C-6.47327 -33.3415 -8.48129 -32.5078 -9.96262 -31.0267C-11.444 -29.5457 -12.2779 -27.5381 -12.2817 -25.4436V367.37C-12.2779 369.464 -11.444 371.472 -9.96262 372.953C-8.48129 374.434 -6.47327 375.267 -4.37836 375.271H275.104C277.199 375.267 279.207 374.434 280.688 372.953C282.17 371.472 283.004 369.464 283.007 367.37V-25.4436C283.004 -27.5381 282.17 -29.5457 280.688 -31.0267C279.207 -32.5078 277.199 -33.3415 275.104 -33.3453H-4.37836Z" fill="#EBEBEB"/>
<path d="M588.212 375.633H308.701C306.51 375.629 304.41 374.757 302.861 373.209C301.311 371.66 300.439 369.56 300.436 367.37V-25.4436C300.458 -27.6215 301.339 -29.7026 302.886 -31.2359C304.433 -32.7692 306.522 -33.6311 308.701 -33.6348H588.212C590.387 -33.6272 592.471 -32.7632 594.012 -31.2299C595.554 -29.6966 596.429 -27.6177 596.448 -25.4436V367.37C596.448 369.556 595.582 371.654 594.038 373.203C592.494 374.751 590.399 375.625 588.212 375.633V375.633ZM308.701 -33.3453C306.606 -33.3415 304.598 -32.5078 303.116 -31.0267C301.635 -29.5457 300.801 -27.5381 300.797 -25.4436V367.37C300.801 369.464 301.635 371.472 303.116 372.953C304.598 374.434 306.606 375.267 308.701 375.271H588.212C590.307 375.267 592.315 374.434 593.796 372.953C595.278 371.472 596.112 369.464 596.115 367.37V-25.4436C596.112 -27.5381 595.278 -29.5457 593.796 -31.0267C592.315 -32.5078 590.307 -33.3415 588.212 -33.3453H308.701Z" fill="#EBEBEB"/>
<path d="M655.796 440.178H-67.9521V440.54H655.796V440.178Z" fill="#EBEBEB"/>
<path d="M478.955 198.149H563.33C566.017 198.143 568.66 197.469 571.022 196.187C573.384 194.906 575.389 193.057 576.858 190.807C578.327 188.558 579.213 185.978 579.437 183.301C579.66 180.624 579.214 177.933 578.138 175.471C572.536 162.606 560.623 155.63 549.854 165.341C533.656 179.813 534.424 151.694 515.042 155.644C498.091 159.103 500.422 175.789 490.043 179.219C479.665 182.649 465.335 194.314 478.955 198.149Z" fill="#FAFAFA"/>
<path d="M345.279 46.5399H406.826C408.784 46.5388 410.712 46.0517 412.435 45.1223C414.158 44.1929 415.624 42.8502 416.7 41.2147C417.776 39.5793 418.429 37.7023 418.601 35.7522C418.772 33.8021 418.457 31.84 417.683 30.0418C413.586 20.6495 404.887 15.5698 397.041 22.6032C385.215 33.2257 385.765 12.6465 371.623 15.5409C359.247 18.059 360.955 30.2444 353.37 32.7336C345.786 35.2228 335.349 43.7323 345.279 46.5399Z" fill="#FAFAFA"/>
<path d="M467.158 440.352H457.025V116.396C457.033 107.677 460.5 99.3166 466.665 93.1497C472.831 86.9828 481.191 83.513 489.912 83.5015H498.872V93.6319H489.912C483.877 93.6395 478.092 96.0408 473.826 100.309C469.56 104.577 467.162 110.362 467.158 116.396V440.352Z" fill="#F0F0F0"/>
<path d="M537.29 31.4893H498.873V140H537.29V31.4893Z" fill="#EBEBEB"/>
<path d="M498.873 140.029H537.29V140.232C537.29 142.216 536.501 144.119 535.098 145.522C533.694 146.926 531.791 147.714 529.806 147.714H506.357C504.372 147.714 502.468 146.926 501.065 145.522C499.661 144.119 498.873 142.216 498.873 140.232V140.029Z" fill="#E6E6E6"/>
<path d="M518.081 65.8312C524.66 65.8312 529.994 60.4987 529.994 53.9207C529.994 47.3427 524.66 42.0103 518.081 42.0103C511.502 42.0103 506.168 47.3427 506.168 53.9207C506.168 60.4987 511.502 65.8312 518.081 65.8312Z" fill="#F0F0F0"/>
<path d="M518.081 62.9366C524.66 62.9366 529.994 57.6041 529.994 51.0262C529.994 44.4482 524.66 39.1157 518.081 39.1157C511.502 39.1157 506.168 44.4482 506.168 51.0262C506.168 57.6041 511.502 62.9366 518.081 62.9366Z" fill="#FAFAFA"/>
<path d="M518.081 98.3932C524.66 98.3932 529.994 93.0607 529.994 86.4827C529.994 79.9047 524.66 74.5723 518.081 74.5723C511.502 74.5723 506.168 79.9047 506.168 86.4827C506.168 93.0607 511.502 98.3932 518.081 98.3932Z" fill="#F0F0F0"/>
<path d="M518.081 95.4986C524.66 95.4986 529.994 90.1661 529.994 83.5882C529.994 77.0102 524.66 71.6777 518.081 71.6777C511.502 71.6777 506.168 77.0102 506.168 83.5882C506.168 90.1661 511.502 95.4986 518.081 95.4986Z" fill="#FAFAFA"/>
<path d="M518.081 130.955C524.66 130.955 529.994 125.623 529.994 119.045C529.994 112.467 524.66 107.134 518.081 107.134C511.502 107.134 506.168 112.467 506.168 119.045C506.168 125.623 511.502 130.955 518.081 130.955Z" fill="#F0F0F0"/>
<path d="M518.081 128.061C524.66 128.061 529.994 122.728 529.994 116.15C529.994 109.572 524.66 104.24 518.081 104.24C511.502 104.24 506.168 109.572 506.168 116.15C506.168 122.728 511.502 128.061 518.081 128.061Z" fill="#FAFAFA"/>
<path d="M564.473 345.604H497.613V374.78H564.473V345.604Z" fill="#EBEBEB"/>
<path d="M502.261 341.566H492.953V378.817H502.261V341.566Z" fill="#F5F5F5"/>
<path d="M569.119 341.566H559.812V378.817H569.119V341.566Z" fill="#F5F5F5"/>
<path d="M491.303 355.546H497.614V364.852H491.303C490.504 364.852 489.738 364.535 489.174 363.97C488.609 363.406 488.292 362.64 488.292 361.842V358.557C488.292 357.758 488.609 356.993 489.174 356.428C489.738 355.863 490.504 355.546 491.303 355.546V355.546Z" fill="#F5F5F5"/>
<path d="M570.756 364.852H564.445V355.547H570.756C571.554 355.547 572.32 355.864 572.885 356.428C573.449 356.993 573.767 357.758 573.767 358.557V361.842C573.767 362.64 573.449 363.406 572.885 363.97C572.32 364.535 571.554 364.852 570.756 364.852V364.852Z" fill="#F5F5F5"/>
<path d="M548.999 428.022H513.072V327.152C513.072 324.794 513.537 322.458 514.44 320.279C515.342 318.1 516.666 316.12 518.334 314.453C520.002 312.785 521.982 311.462 524.161 310.559C526.341 309.657 528.677 309.192 531.036 309.192V309.192C533.395 309.19 535.732 309.654 537.912 310.556C540.093 311.457 542.074 312.78 543.742 314.448C545.41 316.117 546.734 318.097 547.636 320.277C548.538 322.457 549.001 324.793 548.999 327.152V428.022Z" fill="#F5F5F5"/>
<path d="M515.489 421.958H546.596C547.769 421.96 548.929 422.193 550.012 422.645C551.094 423.097 552.076 423.758 552.902 424.59C553.728 425.423 554.381 426.41 554.824 427.496C555.267 428.581 555.491 429.744 555.483 430.916V440.424H506.587V430.916C506.579 429.743 506.804 428.579 507.248 427.492C507.692 426.406 508.346 425.418 509.174 424.585C510.001 423.753 510.985 423.092 512.069 422.641C513.153 422.19 514.315 421.958 515.489 421.958V421.958Z" fill="#EBEBEB"/>
<path d="M531.036 375.503C539.526 375.503 546.409 368.622 546.409 360.134C546.409 351.646 539.526 344.765 531.036 344.765C522.547 344.765 515.664 351.646 515.664 360.134C515.664 368.622 522.547 375.503 531.036 375.503Z" fill="#FAFAFA"/>
<path d="M534.697 360.134C534.7 360.859 534.488 361.568 534.087 362.172C533.687 362.776 533.116 363.247 532.447 363.527C531.778 363.806 531.041 363.881 530.33 363.741C529.618 363.601 528.964 363.254 528.451 362.742C527.937 362.231 527.587 361.578 527.444 360.868C527.302 360.157 527.374 359.42 527.65 358.75C527.927 358.081 528.397 357.508 528.999 357.105C529.602 356.702 530.31 356.487 531.035 356.487C532.004 356.487 532.933 356.871 533.62 357.554C534.306 358.238 534.694 359.165 534.697 360.134V360.134Z" fill="#EBEBEB"/>
<path d="M506.588 332.261C506.588 331.025 507.079 329.839 507.953 328.966C508.827 328.092 510.013 327.601 511.249 327.601H550.838C552.071 327.604 553.253 328.097 554.124 328.971C554.995 329.844 555.484 331.027 555.484 332.261V332.261C555.484 333.494 554.995 334.677 554.124 335.551C553.253 336.424 552.071 336.917 550.838 336.921H511.249C510.013 336.921 508.827 336.43 507.953 335.556C507.079 334.682 506.588 333.496 506.588 332.261V332.261Z" fill="#F0F0F0"/>
<path d="M523.22 383.868C524.453 383.868 525.637 384.357 526.51 385.228C527.384 386.099 527.877 387.28 527.881 388.514V412.581C527.881 413.193 527.76 413.799 527.526 414.364C527.292 414.929 526.948 415.443 526.515 415.876C526.083 416.308 525.569 416.652 525.003 416.886C524.438 417.12 523.832 417.241 523.22 417.241V417.241C521.986 417.237 520.804 416.744 519.933 415.871C519.062 414.997 518.573 413.814 518.573 412.581V388.514C518.573 387.282 519.063 386.1 519.934 385.229C520.806 384.358 521.987 383.868 523.22 383.868V383.868Z" fill="#EBEBEB"/>
<path d="M538.852 383.868C540.085 383.868 541.269 384.357 542.142 385.228C543.016 386.099 543.509 387.28 543.512 388.514V412.581C543.512 413.193 543.392 413.799 543.158 414.364C542.923 414.929 542.58 415.443 542.147 415.876C541.715 416.308 541.201 416.652 540.635 416.886C540.07 417.12 539.464 417.241 538.852 417.241V417.241C537.618 417.237 536.436 416.744 535.565 415.871C534.694 414.997 534.205 413.814 534.205 412.581V388.514C534.205 387.282 534.695 386.1 535.566 385.229C536.437 384.358 537.619 383.868 538.852 383.868V383.868Z" fill="#EBEBEB"/>
<path d="M36.34 440.569H32.7792C32.5316 440.569 32.2865 440.519 32.0586 440.423C31.8307 440.326 31.6247 440.184 31.453 440.005C31.2813 439.827 31.1475 439.616 31.0595 439.384C30.9715 439.153 30.9311 438.906 30.9409 438.659L34.8202 351.205H43.9394L38.1494 438.861C38.1168 439.321 37.9127 439.752 37.5776 440.068C37.2425 440.384 36.8008 440.563 36.34 440.569Z" fill="#F0F0F0"/>
<path d="M51.293 440.569H47.7322C47.4852 440.569 47.2407 440.52 47.0135 440.423C46.7864 440.325 46.5813 440.183 46.4108 440.005C46.2403 439.826 46.1078 439.615 46.0214 439.383C45.935 439.152 45.8966 438.905 45.9083 438.659L49.7442 351.205H58.8923L53.1024 438.861C53.073 439.322 52.87 439.755 52.5342 440.072C52.1984 440.389 51.7548 440.566 51.293 440.569V440.569Z" fill="#F0F0F0"/>
<path d="M92.8357 440.569H96.3965C96.6441 440.569 96.8893 440.519 97.1171 440.423C97.345 440.326 97.551 440.184 97.7227 440.005C97.8944 439.827 98.0282 439.616 98.1162 439.384C98.2042 439.153 98.2446 438.906 98.2348 438.659L94.3845 351.205H85.2363L91.0263 438.861C91.0556 439.322 91.2587 439.755 91.5945 440.072C91.9303 440.389 92.3739 440.566 92.8357 440.569V440.569Z" fill="#F0F0F0"/>
<path d="M107.571 440.569H111.132C111.379 440.569 111.624 440.52 111.852 440.423C112.08 440.326 112.286 440.184 112.458 440.005C112.63 439.827 112.763 439.616 112.851 439.384C112.939 439.153 112.98 438.906 112.97 438.659L109.134 351.205H99.957L105.747 438.861C105.776 439.325 105.982 439.759 106.32 440.077C106.659 440.394 107.107 440.57 107.571 440.569V440.569Z" fill="#F0F0F0"/>
<path d="M59.283 299.756H51.5244V340.741H59.283V299.756Z" fill="#F0F0F0"/>
<path d="M93.5887 299.756H85.8301V340.741H93.5887V299.756Z" fill="#F0F0F0"/>
<path d="M119.86 349.483C119.86 358.542 98.9004 357.688 73.0482 357.688C47.1959 357.688 26.2217 358.542 26.2217 349.483C26.2217 340.423 47.1814 333.071 73.0482 333.071C98.9149 333.071 119.86 340.409 119.86 349.483Z" fill="#F5F5F5"/>
<path d="M95.3106 304.214H50.7422C47.3475 304.213 44.0778 302.933 41.5853 300.629C39.0929 298.325 37.5609 295.166 37.295 291.782L35.8475 274.011C35.7122 272.162 35.9595 270.305 36.5739 268.557C37.1883 266.808 38.1566 265.204 39.4184 263.846C40.6802 262.488 42.2085 261.405 43.9077 260.664C45.607 259.923 47.4408 259.54 49.2947 259.539H96.6133C98.4679 259.537 100.303 259.919 102.003 260.66C103.703 261.4 105.232 262.483 106.495 263.842C107.757 265.2 108.725 266.804 109.339 268.554C109.952 270.304 110.198 272.161 110.061 274.011L108.613 291.782C108.353 295.142 106.842 298.283 104.379 300.584C101.917 302.885 98.6812 304.18 95.3106 304.214Z" fill="#F5F5F5"/>
<path d="M83.8317 135.861H31.2441V177.309H83.8317V135.861Z" fill="#F0F0F0"/>
<path d="M31.2443 135.861H28.4072V177.309H31.2443V135.861Z" fill="#E0E0E0"/>
<path d="M78.4622 140.087H36.6006V173.083H78.4622V140.087Z" fill="#FAFAFA"/>
<path d="M75.0311 142.808H40.0596V170.377H75.0311V142.808Z" fill="#EBEBEB"/>
<path d="M152.559 68.5952H94.6738V141.983H152.559V68.5952Z" fill="#EBEBEB"/>
<path d="M94.6749 68.5952H91.9102V141.983H94.6749V68.5952Z" fill="#E0E0E0"/>
<path d="M146.654 76.0776H100.58V134.501H146.654V76.0776Z" fill="#F5F5F5"/>
<path d="M142.861 80.897H104.372V129.711H142.861V80.897Z" fill="#FAFAFA"/>
<path d="M115.995 98.0604C115.995 98.0604 122.798 107.684 126.301 107.525C129.5 107.395 134.986 98.0604 134.986 98.0604C134.986 98.0604 128.183 88.4365 124.68 88.5957C121.438 88.7838 115.995 98.0604 115.995 98.0604Z" fill="#EBEBEB"/>
<path d="M133.8 119.421C135.812 115.542 125.303 107.395 120.931 107.583C116.922 107.756 108.57 115.731 110.133 119.421C112.42 124.877 131.078 124.674 133.8 119.421Z" fill="#F0F0F0"/>
<path d="M47.3412 113.994C61.7709 113.994 73.4684 97.6856 73.4684 77.5681C73.4684 57.4506 61.7709 41.1421 47.3412 41.1421C32.9115 41.1421 21.2139 57.4506 21.2139 77.5681C21.2139 97.6856 32.9115 113.994 47.3412 113.994Z" fill="#E0E0E0"/>
<path d="M50.4535 113.994C64.8832 113.994 76.5808 97.6856 76.5808 77.5681C76.5808 57.4506 64.8832 41.1421 50.4535 41.1421C36.0238 41.1421 24.3262 57.4506 24.3262 77.5681C24.3262 97.6856 36.0238 113.994 50.4535 113.994Z" fill="#EBEBEB"/>
<path d="M50.4529 108.596C62.7481 108.596 72.7154 94.7042 72.7154 77.568C72.7154 60.4317 62.7481 46.54 50.4529 46.54C38.1577 46.54 28.1904 60.4317 28.1904 77.568C28.1904 94.7042 38.1577 108.596 50.4529 108.596Z" fill="#E6E6E6"/>
<path d="M50.453 105.297C61.4372 105.297 70.3416 92.8821 70.3416 77.5682C70.3416 62.2542 61.4372 49.8398 50.453 49.8398C39.4689 49.8398 30.5645 62.2542 30.5645 77.5682C30.5645 92.8821 39.4689 105.297 50.453 105.297Z" fill="#FAFAFA"/>
<path d="M56.692 92.6333C58.7642 90.6541 60.3851 88.2514 61.4442 85.5892C62.5033 82.9269 62.9758 80.0675 62.8294 77.2061C62.8294 77.2061 54.6221 76.2365 54.8682 89.9849C54.8682 89.9849 45.6187 80.39 48.3545 74.3117C52.697 64.8036 52.697 64.8036 49.5993 58.8701C49.5993 58.8701 41.5368 62.1263 45.2568 73.0961C45.3305 75.9561 45.7633 78.7956 46.5451 81.5477C46.5451 81.5477 38.4247 73.7618 35.8047 78.8559C35.8047 78.8559 40.1472 87.0905 46.5451 83.6751C46.5017 83.6751 53.6378 96.2802 56.692 92.6333Z" fill="#EBEBEB"/>
<path d="M286.944 499.962C441.945 499.962 567.599 492.627 567.599 483.58C567.599 474.532 441.945 467.197 286.944 467.197C131.943 467.197 6.28906 474.532 6.28906 483.58C6.28906 492.627 131.943 499.962 286.944 499.962Z" fill="#F5F5F5"/>
<path d="M397.823 169.856C393.929 165.804 391.164 158.278 389.818 153.43L383.666 168.105C384.655 169.247 385.373 170.598 385.764 172.057C386.155 173.516 386.21 175.044 385.925 176.527C385.925 176.658 385.707 179.118 381.582 181.636C381.582 181.636 382.32 196.484 391.164 194.386C400.009 192.287 404.814 174.661 404.814 174.661L405.451 169.668C405.451 169.668 401.427 173.054 397.823 169.856Z" fill="#FFC3BD"/>
<path opacity="0.1" d="M385.215 164.515L383.768 168.105C384.925 169.492 385.712 171.15 386.055 172.924C390.108 168.148 390.556 160.42 390.556 160.42L385.215 164.515Z" fill="black"/>
<path d="M321.005 235.935C321.005 235.935 344.874 236.904 355.469 234.01C366.065 231.115 375.069 212.577 375.069 212.577L362.982 205.905L350.968 223.778L321.034 228.568L312.435 222.519C312.435 222.519 295.065 218.814 295.065 221.072C295.065 223.33 304.025 225.153 304.025 225.153C304.025 225.153 304.561 235.833 308.238 236.166C311.914 236.499 321.005 235.935 321.005 235.935Z" fill="#FFC3BD"/>
<path d="M379.425 184.892C379.425 184.892 369.09 186.339 362.331 198.857C355.571 211.376 361.346 211.882 367.064 215.413C372.781 218.945 375.648 219.755 378.282 212.027C380.916 204.299 386.113 184.096 379.425 184.892Z" fill="#407BFF"/>
<path opacity="0.1" d="M379.397 208.496L375.561 200.681L369.119 200.189C368.808 205.718 368.919 211.262 369.452 216.774C373.636 218.959 376.053 218.525 378.282 211.998C378.615 211.014 379.006 209.827 379.397 208.496Z" fill="black"/>
<path d="M358.813 135.021C358.813 135.021 351.286 137.684 356.265 145.34C361.245 152.996 351.199 158.206 368.062 160.319C384.926 162.431 368.656 131.939 368.656 131.939L358.813 135.021Z" fill="#263238"/>
<path opacity="0.3" d="M358.813 135.021C358.813 135.021 351.286 137.684 356.265 145.34C361.245 152.996 351.199 158.206 368.062 160.319C384.926 162.431 368.656 131.939 368.656 131.939L358.813 135.021Z" fill="black"/>
<path d="M423.647 183.068C421.128 166.686 411.589 166.976 402.296 170.637C402.948 176.802 402.962 184.675 394.031 189.581C385.997 193.922 382.871 186.686 382.697 180.579C374.273 185.37 367.238 191.506 369.539 203.734C370.857 210.681 376.994 218.308 383.276 227.99C390.789 239.567 398.518 252.708 398.518 252.708L441.451 230.855C441.451 230.855 426.383 200.811 423.647 183.068Z" fill="#407BFF"/>
<path opacity="0.2" d="M423.647 183.068C423.343 180.956 422.824 178.881 422.098 176.874L415.599 175.774L412.212 181.158C412.212 181.158 419.377 193.778 428.902 201.752C426.576 195.7 424.817 189.445 423.647 183.068Z" fill="black"/>
<path d="M435.126 177.859C435.126 177.859 449.861 187.989 454.363 191.824C461.065 197.613 479.115 217.107 479.115 217.107L490.188 223.156V230.161L484.948 233.779C484.566 234.043 484.134 234.228 483.679 234.324C483.224 234.42 482.754 234.424 482.298 234.337C481.841 234.249 481.406 234.072 481.019 233.814C480.631 233.557 480.299 233.225 480.041 232.838L473.325 222.809C473.325 222.809 456.766 207.686 450.672 203.373C445.519 199.726 428.814 190.768 428.814 190.768L435.126 177.859Z" fill="#FFC3BD"/>
<path d="M407.926 169.118C407.926 169.118 417.422 164.848 425.513 169.118C433.605 173.387 437.18 175.731 436.384 180.883C435.588 186.035 432.62 196.687 427.293 194.921C421.967 193.156 404.973 176.296 407.926 169.118Z" fill="#407BFF"/>
<path d="M392.062 141.216C393.162 152.316 393.871 156.976 389.239 163.503C382.263 173.329 368.396 172.258 364.01 161.722C360.043 152.229 358.914 135.673 368.96 129.595C371.165 128.221 373.685 127.435 376.281 127.314C378.876 127.192 381.459 127.738 383.783 128.9C386.106 130.061 388.093 131.8 389.553 133.948C391.013 136.097 391.896 138.584 392.12 141.172L392.062 141.216Z" fill="#FFC3BD"/>
<path d="M368.742 149.696C368.278 151.864 367.518 153.958 366.484 155.919C366.989 156.174 367.544 156.316 368.109 156.333C368.674 156.351 369.236 156.244 369.756 156.021L368.742 149.696Z" fill="#ED893E"/>
<path d="M376.154 142.287C376.221 142.249 376.276 142.194 376.314 142.127C376.368 142.027 376.381 141.909 376.352 141.799C376.322 141.689 376.251 141.594 376.154 141.534C375.446 141.106 374.644 140.854 373.818 140.802C372.991 140.749 372.164 140.896 371.407 141.23C371.304 141.288 371.227 141.384 371.192 141.497C371.157 141.61 371.166 141.732 371.218 141.838C371.271 141.939 371.361 142.015 371.469 142.05C371.578 142.086 371.696 142.077 371.797 142.026C372.43 141.76 373.117 141.647 373.801 141.698C374.485 141.748 375.148 141.96 375.735 142.316C375.801 142.348 375.875 142.363 375.948 142.357C376.022 142.352 376.093 142.328 376.154 142.287V142.287Z" fill="#263238"/>
<path d="M359.581 145.094L359.769 144.949C360.199 144.423 360.746 144.004 361.367 143.728C361.988 143.451 362.665 143.324 363.344 143.357C363.461 143.374 363.58 143.344 363.675 143.273C363.77 143.203 363.833 143.098 363.851 142.981V142.981C363.856 142.863 363.817 142.748 363.742 142.657C363.667 142.567 363.562 142.507 363.445 142.489C362.622 142.443 361.8 142.593 361.046 142.925C360.291 143.257 359.625 143.762 359.103 144.399C359.023 144.483 358.978 144.594 358.978 144.71C358.978 144.826 359.023 144.938 359.103 145.022C359.168 145.077 359.246 145.115 359.33 145.13C359.414 145.145 359.501 145.138 359.581 145.108V145.094Z" fill="#263238"/>
<path d="M374.822 147.265C374.967 148.148 374.605 148.944 374.012 149.045C373.418 149.146 372.839 148.51 372.709 147.598C372.579 146.686 372.911 145.919 373.49 145.818C374.069 145.717 374.663 146.31 374.822 147.265Z" fill="#263238"/>
<path d="M364.705 148.842C364.849 149.725 364.488 150.521 363.909 150.623C363.33 150.724 362.751 150.073 362.591 149.175C362.432 148.278 362.808 147.482 363.387 147.395C363.966 147.308 364.574 147.931 364.705 148.842Z" fill="#263238"/>
<path d="M363.648 147.395L361.404 147.135C361.404 147.135 362.779 148.625 363.648 147.395Z" fill="#263238"/>
<path d="M373.766 145.818L371.522 145.557C371.522 145.557 372.898 146.99 373.766 145.818Z" fill="#263238"/>
<path d="M376.98 160.13C377.53 159.862 378.053 159.543 378.543 159.175C378.577 159.151 378.607 159.12 378.629 159.084C378.652 159.048 378.667 159.008 378.673 158.966C378.68 158.924 378.678 158.882 378.668 158.841C378.658 158.799 378.64 158.761 378.615 158.727V158.727C378.554 158.671 378.474 158.64 378.391 158.64C378.308 158.64 378.228 158.671 378.167 158.727C377.086 159.554 375.826 160.116 374.489 160.368C373.151 160.619 371.773 160.553 370.466 160.174C370.427 160.157 370.385 160.149 370.343 160.148C370.301 160.148 370.259 160.156 370.22 160.173C370.181 160.189 370.145 160.213 370.115 160.243C370.085 160.273 370.062 160.308 370.046 160.347C370.028 160.387 370.018 160.43 370.018 160.474C370.017 160.517 370.026 160.561 370.044 160.6C370.062 160.64 370.088 160.676 370.121 160.704C370.154 160.733 370.192 160.755 370.234 160.767C372.48 161.44 374.899 161.211 376.98 160.13V160.13Z" fill="#263238"/>
<path d="M368.12 135.137C363.778 135.658 352.198 138.958 354.036 128.162C355.874 117.366 376.559 111.968 386.17 118.943C395.782 125.919 403.164 125.398 410.778 119.739C418.392 114.081 422.097 116.309 431.853 121.577C431.853 121.577 426.584 130.666 429.089 136.194C429.089 136.194 423.299 130.405 412.486 136.585C412.486 136.585 424.992 133.27 429.74 141.91C429.74 141.91 428.423 151.447 433.026 157.12C437.629 162.793 432.896 169.508 415.251 162.663C397.606 155.818 395.724 162.099 391.656 159.074C387.589 156.049 384.535 147.858 383.898 141.91C383.492 137.627 381.567 133.545 368.12 135.137Z" fill="#263238"/>
<path d="M393.582 148.842C393.444 149.902 393.098 150.925 392.564 151.851C392.03 152.777 391.318 153.589 390.47 154.24C388.198 155.948 386.012 154.24 385.78 151.476C385.563 149.059 386.49 145.239 389.197 144.573C389.793 144.45 390.41 144.478 390.993 144.652C391.577 144.827 392.107 145.144 392.538 145.574C392.968 146.005 393.285 146.535 393.46 147.118C393.635 147.701 393.662 148.319 393.539 148.915L393.582 148.842Z" fill="#FFC3BD"/>
<path d="M451.699 455.519C452.075 464.766 452.35 472.103 452.35 472.103L442.073 473.276C442.073 473.276 441.089 467.024 439.612 457.429L451.699 455.519Z" fill="#FFC3BD"/>
<path d="M437.558 471.047C436.498 471.242 435.405 471.035 434.489 470.469C434.379 470.314 434.32 470.13 434.32 469.94C434.32 469.751 434.379 469.566 434.489 469.412C434.56 469.264 434.661 469.132 434.786 469.025C434.91 468.918 435.056 468.838 435.213 468.79C436.906 468.211 440.612 470.02 440.771 470.107C440.817 470.129 440.854 470.164 440.88 470.208C440.906 470.252 440.918 470.302 440.916 470.353C440.91 470.402 440.889 470.449 440.855 470.485C440.821 470.522 440.777 470.546 440.728 470.555C439.688 470.816 438.627 470.98 437.558 471.047V471.047ZM435.806 469.166C435.648 469.166 435.491 469.195 435.343 469.253C435.243 469.273 435.149 469.316 435.068 469.379C434.988 469.441 434.923 469.522 434.88 469.615C434.721 469.933 434.793 470.078 434.88 470.15C435.401 470.787 437.992 470.642 439.888 470.28C438.6 469.655 437.205 469.277 435.777 469.166H435.806Z" fill="#407BFF"/>
<path d="M440.641 470.555H440.539C439.28 470.092 436.675 468.022 436.819 466.85C436.819 466.575 437.007 466.228 437.673 466.112C437.924 466.06 438.184 466.063 438.433 466.12C438.683 466.178 438.918 466.289 439.121 466.445C440.13 467.504 440.774 468.858 440.959 470.309C440.969 470.345 440.969 470.382 440.959 470.418C440.949 470.453 440.93 470.485 440.903 470.511C440.876 470.536 440.843 470.553 440.807 470.561C440.771 470.569 440.733 470.567 440.699 470.555H440.641ZM437.861 466.561H437.731C437.297 466.561 437.268 466.807 437.268 466.865C437.268 467.559 438.976 469.209 440.293 469.875C440.099 468.72 439.553 467.654 438.73 466.821C438.48 466.634 438.173 466.542 437.861 466.561V466.561Z" fill="#407BFF"/>
<path d="M441.639 469.049L452.842 468.34C453.048 468.326 453.253 468.383 453.421 468.501C453.59 468.62 453.713 468.793 453.769 468.991L456.389 477.978C456.453 478.167 456.477 478.367 456.46 478.566C456.443 478.765 456.385 478.958 456.29 479.133C456.195 479.309 456.065 479.462 455.907 479.585C455.75 479.707 455.569 479.796 455.375 479.845C455.27 479.859 455.163 479.859 455.057 479.845C451.019 480.033 447.4 480.048 442.377 480.366C436.442 480.757 438.034 481.365 431.014 481.915C426.816 482.233 425.745 477.573 427.511 477.154C435.603 475.605 436.297 473.087 439.25 469.918C439.921 469.359 440.766 469.052 441.639 469.049V469.049Z" fill="#263238"/>
<path d="M445.476 237.252L443.521 230.233C443.46 230.035 443.357 229.853 443.22 229.698C443.082 229.544 442.913 229.421 442.724 229.337C442.534 229.253 442.329 229.211 442.122 229.213C441.915 229.216 441.711 229.262 441.524 229.35L397.723 251.464C397.546 251.559 397.391 251.69 397.268 251.848C397.145 252.007 397.056 252.189 397.007 252.384C396.958 252.578 396.95 252.781 396.983 252.979C397.017 253.177 397.091 253.365 397.202 253.533L401.631 259.973C401.631 259.973 412.502 333.954 416.96 358.556C421.563 383.636 438.035 458.688 438.035 458.688C438.088 458.955 438.243 459.191 438.468 459.345C438.692 459.499 438.968 459.56 439.237 459.513L451.989 457.458C452.231 457.418 452.452 457.295 452.613 457.11C452.774 456.925 452.865 456.69 452.872 456.445C453.017 450.048 452.872 409.613 448.848 381.002C447.401 370.785 443.956 362.594 442.783 356.964C441.495 350.756 443.492 346.588 444.231 331.638C445.823 303.563 447.589 259.134 445.476 237.252Z" fill="#263238"/>
<path opacity="0.5" d="M444.331 331.696C444.837 322.275 445.358 311.045 445.778 299.438L433.069 278.02L427.409 265.371L422.054 272.607C422.054 272.607 431.52 312.42 443.954 337.427C444.085 335.748 444.229 333.838 444.331 331.696Z" fill="black"/>
<path d="M540.72 420.119C546.047 427.688 549.506 432.666 549.506 432.666L541.444 439.208L530.79 427.225L540.72 420.119Z" fill="#FFC3BD"/>
<path d="M535.885 439.714C535.099 440.451 534.067 440.869 532.99 440.887C532.808 440.826 532.65 440.709 532.538 440.553C532.426 440.397 532.367 440.21 532.367 440.018C532.338 439.69 532.436 439.364 532.643 439.107C533.757 437.659 537.853 437.225 538.042 437.196C538.093 437.19 538.145 437.2 538.19 437.226C538.234 437.253 538.269 437.293 538.288 437.341C538.315 437.382 538.33 437.43 538.33 437.479C538.33 437.528 538.315 437.575 538.288 437.616C537.547 438.381 536.743 439.083 535.885 439.714V439.714ZM533.381 439.078C533.252 439.168 533.135 439.275 533.033 439.396C532.967 439.473 532.917 439.563 532.888 439.66C532.858 439.757 532.848 439.86 532.86 439.961C532.86 440.308 533.033 440.395 533.135 440.424C533.916 440.67 536.03 439.15 537.477 437.819C536.044 437.972 534.653 438.399 533.381 439.078V439.078Z" fill="#407BFF"/>
<path d="M538.216 437.631H538.129C536.811 437.92 533.497 437.631 532.99 436.531C532.845 436.285 532.802 435.894 533.309 435.445C533.487 435.28 533.697 435.153 533.926 435.071C534.155 434.989 534.398 434.954 534.64 434.968C536.068 435.317 537.349 436.107 538.302 437.225C538.324 437.263 538.335 437.305 538.335 437.348C538.335 437.392 538.324 437.434 538.302 437.471C538.291 437.532 538.261 437.588 538.216 437.631V437.631ZM533.714 435.778L533.598 435.851C533.265 436.14 533.337 436.299 533.366 436.357C533.728 436.951 536.073 437.399 537.55 437.24C536.75 436.381 535.711 435.781 534.568 435.518C534.261 435.501 533.959 435.594 533.714 435.778V435.778Z" fill="#407BFF"/>
<path d="M538.231 435.837L547.277 429.166C547.437 429.036 547.636 428.966 547.842 428.966C548.047 428.966 548.247 429.036 548.406 429.166L555.456 435.316C555.612 435.439 555.741 435.593 555.836 435.768C555.93 435.944 555.987 436.137 556.003 436.335C556.019 436.533 555.995 436.733 555.93 436.921C555.866 437.109 555.764 437.282 555.629 437.429C555.56 437.509 555.482 437.582 555.398 437.646C552.098 439.991 549.058 441.988 545.005 444.955C540.228 448.486 541.864 448.167 536.32 452.393C532.962 454.94 529.502 451.539 530.79 450.295C536.769 444.607 535.987 442.118 536.783 437.892C537.007 437.057 537.52 436.329 538.231 435.837V435.837Z" fill="#263238"/>
<path d="M413.398 255.11C413.398 255.11 446.937 332.405 462.787 355.445C476.871 375.908 530.342 428.268 530.342 428.268C530.737 428.693 531.28 428.95 531.86 428.985C532.439 429.02 533.01 428.83 533.454 428.456L540.879 422.146C541.286 421.796 541.555 421.313 541.64 420.783C541.725 420.254 541.62 419.711 541.343 419.252C536.783 411.827 517.589 380.959 500.74 360.872C494.024 352.869 487.568 346.993 484.384 342.579C480.2 336.79 481.185 332.072 477.87 315.878C471.704 285.762 459.689 241.478 441.451 234.401L413.398 255.11Z" fill="#263238"/>
<path opacity="0.3" d="M348.651 473.507H212.022C209.83 473.547 207.656 473.119 205.642 472.253C203.629 471.387 201.823 470.102 200.346 468.483C198.868 466.865 197.752 464.95 197.072 462.867C196.393 460.784 196.165 458.579 196.403 456.401L226.424 113.415C226.895 108.778 229.049 104.475 232.48 101.32C235.91 98.1651 240.379 96.377 245.039 96.2946H381.668C383.861 96.2545 386.037 96.6823 388.052 97.5494C390.066 98.4165 391.873 99.703 393.351 101.323C394.829 102.943 395.944 104.86 396.623 106.945C397.302 109.03 397.528 111.235 397.287 113.415L367.266 456.401C366.792 461.035 364.636 465.335 361.206 468.487C357.776 471.639 353.309 473.425 348.651 473.507V473.507Z" fill="#407BFF"/>
<path d="M381.668 96.2369H245.039C240.379 96.3194 235.91 98.1074 232.48 101.263C229.049 104.418 226.895 108.721 226.424 113.357L196.403 456.343C196.165 458.522 196.393 460.726 197.072 462.809C197.752 464.893 198.868 466.807 200.346 468.426C201.823 470.044 203.629 471.329 205.642 472.195C207.656 473.062 209.83 473.489 212.022 473.449H348.651C353.309 473.367 357.776 471.581 361.206 468.429C364.636 465.277 366.792 460.977 367.266 456.343L397.287 113.357C397.528 111.178 397.302 108.972 396.623 106.887C395.944 104.802 394.829 102.885 393.351 101.265C391.873 99.6453 390.066 98.3589 388.052 97.4918C386.037 96.6247 383.861 96.1969 381.668 96.2369V96.2369ZM359.666 456.401C359.402 458.977 358.202 461.366 356.296 463.118C354.389 464.87 351.906 465.863 349.317 465.909H212.688C211.47 465.931 210.261 465.693 209.142 465.211C208.023 464.73 207.019 464.016 206.198 463.116C205.376 462.217 204.756 461.153 204.377 459.995C203.999 458.837 203.871 457.612 204.003 456.401L234.024 113.415C234.285 110.837 235.483 108.444 237.39 106.689C239.298 104.935 241.782 103.94 244.373 103.893H381.003C382.222 103.871 383.432 104.109 384.552 104.592C385.672 105.074 386.677 105.79 387.498 106.691C388.32 107.592 388.94 108.658 389.318 109.817C389.695 110.977 389.821 112.203 389.688 113.415L359.666 456.401Z" fill="#407BFF"/>
<path opacity="0.6" d="M381.668 96.2369H245.039C240.379 96.3194 235.91 98.1074 232.48 101.263C229.049 104.418 226.895 108.721 226.424 113.357L196.403 456.343C196.165 458.522 196.393 460.726 197.072 462.809C197.752 464.893 198.868 466.807 200.346 468.426C201.823 470.044 203.629 471.329 205.642 472.195C207.656 473.062 209.83 473.489 212.022 473.449H348.651C353.309 473.367 357.776 471.581 361.206 468.429C364.636 465.277 366.792 460.977 367.266 456.343L397.287 113.357C397.528 111.178 397.302 108.972 396.623 106.887C395.944 104.802 394.829 102.885 393.351 101.265C391.873 99.6453 390.066 98.3589 388.052 97.4918C386.037 96.6247 383.861 96.1969 381.668 96.2369V96.2369ZM359.666 456.401C359.402 458.977 358.202 461.366 356.296 463.118C354.389 464.87 351.906 465.863 349.317 465.909H212.688C211.47 465.931 210.261 465.693 209.142 465.211C208.023 464.73 207.019 464.016 206.198 463.116C205.376 462.217 204.756 461.153 204.377 459.995C203.999 458.837 203.871 457.612 204.003 456.401L234.024 113.415C234.285 110.837 235.483 108.444 237.39 106.689C239.298 104.935 241.782 103.94 244.373 103.893H381.003C382.222 103.871 383.432 104.109 384.552 104.592C385.672 105.074 386.677 105.79 387.498 106.691C388.32 107.592 388.94 108.658 389.318 109.817C389.695 110.977 389.821 112.203 389.688 113.415L359.666 456.401Z" fill="white"/>
<path d="M300.855 452.32H263.22C262.646 452.331 262.096 452.552 261.675 452.942C261.253 453.331 260.989 453.862 260.933 454.433C260.904 454.701 260.932 454.972 261.017 455.227C261.101 455.483 261.239 455.719 261.421 455.917C261.603 456.116 261.825 456.273 262.073 456.379C262.321 456.485 262.588 456.537 262.858 456.531H300.493C301.067 456.524 301.618 456.306 302.042 455.919C302.467 455.532 302.734 455.003 302.794 454.433C302.823 454.163 302.794 453.89 302.709 453.632C302.624 453.375 302.486 453.138 302.302 452.938C302.119 452.738 301.895 452.579 301.645 452.473C301.395 452.366 301.126 452.314 300.855 452.32V452.32Z" fill="white"/>
<path opacity="0.1" d="M299.927 255.805H260.092C258.813 255.829 257.543 255.581 256.367 255.075C255.191 254.57 254.136 253.82 253.273 252.875C252.411 251.93 251.759 250.812 251.362 249.595C250.966 248.379 250.833 247.091 250.973 245.82L254.462 205.978C254.737 203.275 255.994 200.766 257.994 198.926C259.995 197.086 262.6 196.042 265.318 195.993H305.167C306.446 195.971 307.715 196.221 308.89 196.727C310.065 197.233 311.118 197.984 311.981 198.928C312.843 199.872 313.495 200.99 313.892 202.205C314.29 203.421 314.424 204.707 314.287 205.978L310.798 245.82C310.522 248.526 309.263 251.037 307.26 252.877C305.256 254.717 302.648 255.759 299.927 255.805V255.805Z" fill="black"/>
<path d="M295.586 251.463H255.751C254.471 251.488 253.201 251.239 252.025 250.733C250.849 250.228 249.795 249.478 248.932 248.533C248.069 247.588 247.417 246.47 247.021 245.253C246.624 244.037 246.491 242.75 246.631 241.478L250.12 201.636C250.395 198.933 251.652 196.424 253.653 194.584C255.653 192.744 258.258 191.7 260.976 191.651H300.826C302.104 191.629 303.373 191.879 304.548 192.385C305.723 192.892 306.776 193.642 307.639 194.586C308.501 195.531 309.153 196.648 309.551 197.863C309.948 199.079 310.082 200.365 309.945 201.636L306.456 241.478C306.18 244.184 304.921 246.695 302.918 248.535C300.915 250.375 298.306 251.417 295.586 251.463V251.463Z" fill="#407BFF"/>
<path d="M284.976 217.917C285.657 210.189 279.186 203.938 270.356 203.938C261.527 203.938 253.971 210.189 253.305 217.917C252.769 224.01 256.75 229.191 262.757 231.087C261.924 232.708 260.595 234.021 258.965 234.835C259.254 235.013 259.559 235.164 259.877 235.284C261.497 235.809 263.25 235.754 264.835 235.128C266.42 234.502 267.737 233.345 268.562 231.854C277.015 231.565 284.325 225.414 284.976 217.917Z" fill="white"/>
<path d="M303.315 224.603C303.88 218.236 298.48 213.026 291.257 213.026C289.988 213.029 288.724 213.189 287.494 213.503C287.795 214.93 287.888 216.392 287.769 217.845C287.456 220.604 286.51 223.253 285.003 225.585C283.496 227.918 281.471 229.87 279.084 231.29C280.183 232.706 281.58 233.864 283.175 234.682C284.771 235.5 286.527 235.957 288.319 236.022C288.539 236.604 288.872 237.136 289.298 237.589C289.725 238.041 290.237 238.405 290.804 238.66C291.372 238.914 291.984 239.053 292.606 239.07C293.228 239.087 293.847 238.98 294.427 238.757C294.685 238.661 294.936 238.55 295.18 238.424C294.089 237.802 293.26 236.804 292.85 235.617C298.451 234.314 302.852 229.886 303.315 224.603Z" fill="white"/>
<path opacity="0.1" d="M281.661 379.106H252.031C251.079 379.124 250.135 378.939 249.26 378.563C248.386 378.188 247.601 377.63 246.959 376.928C246.316 376.225 245.831 375.394 245.535 374.49C245.239 373.585 245.139 372.628 245.242 371.682L247.833 342.058C248.039 340.043 248.975 338.173 250.466 336.802C251.958 335.431 253.9 334.655 255.925 334.619H285.555C286.508 334.601 287.454 334.786 288.33 335.162C289.206 335.539 289.991 336.098 290.634 336.802C291.276 337.506 291.761 338.339 292.056 339.245C292.351 340.151 292.449 341.11 292.344 342.058L289.753 371.682C289.548 373.695 288.61 375.563 287.119 376.932C285.627 378.3 283.685 379.074 281.661 379.106V379.106Z" fill="black"/>
<path opacity="0.1" d="M325.144 321.45H288.132C286.942 321.472 285.761 321.24 284.669 320.769C283.576 320.298 282.596 319.6 281.795 318.721C280.993 317.841 280.389 316.801 280.021 315.67C279.654 314.538 279.532 313.341 279.664 312.159L282.892 275.125C283.15 272.605 284.324 270.267 286.192 268.554C288.06 266.842 290.491 265.874 293.024 265.834H330.08C331.269 265.815 332.449 266.049 333.54 266.52C334.632 266.991 335.611 267.69 336.412 268.569C337.213 269.447 337.817 270.487 338.186 271.617C338.554 272.747 338.678 273.943 338.548 275.125L335.32 312.159C335.061 314.687 333.88 317.031 332.004 318.744C330.127 320.457 327.685 321.421 325.144 321.45V321.45Z" fill="black"/>
<path d="M320.801 317.108H283.789C282.599 317.13 281.419 316.898 280.326 316.427C279.233 315.956 278.253 315.258 277.452 314.379C276.65 313.499 276.046 312.459 275.678 311.328C275.311 310.196 275.189 308.999 275.321 307.817L278.549 270.783C278.807 268.263 279.982 265.925 281.849 264.213C283.717 262.5 286.148 261.532 288.682 261.492H325.737C326.926 261.473 328.106 261.707 329.198 262.178C330.289 262.65 331.268 263.348 332.069 264.227C332.87 265.106 333.475 266.145 333.843 267.275C334.211 268.406 334.335 269.602 334.205 270.783L330.977 307.817C330.718 310.345 329.538 312.689 327.661 314.402C325.784 316.116 323.343 317.079 320.801 317.108V317.108Z" fill="#407BFF"/>
<path d="M277.319 374.765H247.688C246.737 374.783 245.792 374.598 244.917 374.222C244.043 373.847 243.258 373.289 242.616 372.587C241.974 371.884 241.488 371.053 241.192 370.149C240.897 369.244 240.797 368.287 240.9 367.341L243.491 337.717C243.696 335.702 244.633 333.832 246.124 332.461C247.615 331.09 249.557 330.314 251.582 330.278H281.212C282.166 330.26 283.112 330.445 283.987 330.822C284.863 331.198 285.648 331.757 286.291 332.461C286.933 333.165 287.418 333.998 287.713 334.904C288.008 335.811 288.106 336.769 288.001 337.717L285.41 367.341C285.205 369.354 284.268 371.222 282.776 372.591C281.285 373.959 279.343 374.733 277.319 374.765V374.765Z" fill="#407BFF"/>
<path d="M323.233 274.025H288.855C287.768 274.021 286.719 274.424 285.915 275.156C285.111 275.887 284.61 276.894 284.513 277.976L282.587 300.668C282.534 301.17 282.588 301.677 282.745 302.157C282.903 302.636 283.161 303.077 283.502 303.449C283.843 303.821 284.259 304.117 284.722 304.316C285.186 304.515 285.687 304.614 286.192 304.605H320.555C321.64 304.609 322.687 304.208 323.491 303.479C324.295 302.751 324.796 301.748 324.898 300.668L326.881 278.005C326.941 277.496 326.891 276.98 326.734 276.492C326.577 276.004 326.317 275.556 325.97 275.178C325.624 274.8 325.2 274.502 324.728 274.303C324.255 274.104 323.745 274.009 323.233 274.025V274.025ZM296.903 289.279L285.396 299.858L287.248 278.7L296.903 289.279ZM289.347 276.76H322.249L305.617 292.057C305.466 292.209 305.287 292.33 305.09 292.412C304.892 292.494 304.68 292.536 304.466 292.536C304.252 292.536 304.04 292.494 303.843 292.412C303.645 292.33 303.466 292.209 303.316 292.057L289.347 276.76ZM298.669 291.232L301.202 294.011C301.583 294.42 302.044 294.744 302.558 294.964C303.072 295.183 303.626 295.292 304.184 295.285C305.372 295.277 306.514 294.822 307.383 294.011L310.408 291.232L320.106 301.855H287.118L298.669 291.232ZM312.507 289.293L324.087 278.714L322.234 299.872L312.507 289.293Z" fill="white"/>
<path d="M250.858 344.547L259.543 348.079L269.097 341.537L261.917 350.032L267.186 357.471L275.538 336.747L250.858 344.547Z" fill="white"/>
<path d="M258.949 350.046L262.857 354.822H258.688L258.949 350.046Z" fill="white"/>
<path d="M255.491 356.285L254.579 355.706C254.845 355.276 255.14 354.865 255.462 354.476L256.287 355.185C255.997 355.533 255.731 355.9 255.491 356.285Z" fill="white"/>
<path d="M255.056 363.419C254.155 362.921 253.484 362.09 253.189 361.103L254.231 360.814C254.475 361.538 254.995 362.136 255.679 362.478L255.056 363.419ZM254.144 359.685L253.059 359.598C253.165 358.653 253.445 357.736 253.884 356.892L254.868 357.384C254.486 358.1 254.241 358.88 254.144 359.685V359.685Z" fill="white"/>
<path d="M276.941 367.239L275.87 367.051C275.921 366.789 275.945 366.522 275.942 366.255C275.975 365.792 275.836 365.334 275.552 364.967L276.391 364.273C276.828 364.839 277.053 365.54 277.028 366.255C277.025 366.585 276.996 366.914 276.941 367.239V367.239ZM261.554 364.736H260.425V363.65C261.288 363.694 262.153 363.694 263.016 363.65V364.736H261.554ZM264.449 364.62V363.535C265.332 363.535 266.215 363.39 267.069 363.303L267.171 364.388L264.449 364.62ZM259.079 364.62H258.63C257.869 364.52 257.118 364.35 256.387 364.113L256.734 363.086C257.398 363.307 258.081 363.462 258.775 363.549H259.195L259.079 364.62ZM274.712 364.403C273.936 364.153 273.124 364.035 272.309 364.056V362.898C273.258 362.873 274.203 363.015 275.103 363.317L274.712 364.403ZM268.415 364.273L268.314 363.187C269.24 363.1 270.138 363.028 270.963 362.985V364.07C270.196 364.07 269.313 364.142 268.401 364.229L268.415 364.273Z" fill="white"/>
<path d="M276.045 369.989L275.046 369.555C275.249 369.092 275.422 368.643 275.553 368.252L276.58 368.585C276.435 369.019 276.262 369.483 276.045 369.989Z" fill="white"/>
<path opacity="0.1" d="M316.212 187.887H282.92C281.849 187.906 280.786 187.697 279.802 187.273C278.819 186.849 277.936 186.22 277.215 185.429C276.493 184.637 275.948 183.701 275.617 182.683C275.285 181.665 275.174 180.587 275.291 179.523L278.186 146.237C278.416 143.973 279.468 141.871 281.143 140.329C282.818 138.788 285.001 137.914 287.277 137.872H320.569C321.64 137.853 322.703 138.063 323.687 138.487C324.67 138.911 325.552 139.54 326.274 140.331C326.996 141.122 327.541 142.058 327.872 143.077C328.204 144.095 328.315 145.173 328.197 146.237L325.302 179.523C325.073 181.787 324.021 183.889 322.346 185.43C320.67 186.972 318.488 187.846 316.212 187.887V187.887Z" fill="black"/>
<path d="M311.87 183.546H278.578C277.507 183.565 276.444 183.355 275.46 182.931C274.477 182.507 273.595 181.879 272.873 181.087C272.151 180.296 271.606 179.36 271.275 178.342C270.943 177.323 270.832 176.246 270.95 175.181L273.845 141.896C274.074 139.631 275.126 137.529 276.801 135.988C278.477 134.447 280.659 133.572 282.935 133.531H316.227C317.298 133.512 318.361 133.722 319.345 134.146C320.329 134.57 321.211 135.198 321.932 135.99C322.654 136.781 323.199 137.717 323.531 138.736C323.862 139.754 323.973 140.831 323.856 141.896L320.961 175.181C320.731 177.446 319.679 179.548 318.004 181.089C316.329 182.631 314.147 183.505 311.87 183.546V183.546Z" fill="#407BFF"/>
<path d="M313.651 165.311C313.432 159.454 311.144 153.864 307.192 149.535C303.241 145.205 297.882 142.417 292.068 141.664C290.368 140.827 288.431 140.604 286.584 141.031C284.738 141.458 283.096 142.51 281.936 144.009C279.041 147.525 281.617 149.797 284.831 152.315C288.044 154.834 290.925 156.758 293.776 153.242C294.846 151.955 295.506 150.377 295.673 148.712C298.345 149.803 300.742 151.476 302.687 153.609C304.633 155.742 306.078 158.281 306.92 161.042C305.257 161.05 303.634 161.554 302.259 162.489C298.51 165.036 300.16 168.003 302.403 171.52C304.647 175.036 306.645 177.757 310.379 175.196C311.974 174.171 313.168 172.631 313.764 170.832C314.359 169.033 314.319 167.084 313.651 165.311V165.311Z" fill="white"/>
<path d="M299.711 90.4769H322.437C323.566 90.4769 323.711 88.7402 322.596 88.7402H299.899C298.785 88.7402 298.625 90.4769 299.74 90.4769H299.711Z" fill="#407BFF"/>
<path d="M330.76 90.4769H337.346C338.475 90.4769 338.62 88.7402 337.505 88.7402H330.977C329.863 88.7402 329.703 90.4769 330.832 90.4769H330.76Z" fill="#407BFF"/>
<g opacity="0.3">
<path d="M299.711 90.4769H322.437C323.566 90.4769 323.711 88.7402 322.596 88.7402H299.899C298.785 88.7402 298.625 90.4769 299.74 90.4769H299.711Z" fill="white"/>
</g>
<g opacity="0.3">
<path d="M330.76 90.4769H337.346C338.475 90.4769 338.62 88.7402 337.505 88.7402H330.977C329.863 88.7402 329.703 90.4769 330.832 90.4769H330.76Z" fill="white"/>
</g>
<path d="M374.546 266.037L372.549 288.729C372.53 288.959 372.603 289.188 372.752 289.364C372.901 289.54 373.115 289.65 373.345 289.669C373.575 289.689 373.804 289.616 373.98 289.466C374.157 289.317 374.267 289.104 374.286 288.873C374.942 281.319 375.603 273.755 376.269 266.181C376.266 265.966 376.183 265.759 376.036 265.602C375.889 265.444 375.688 265.347 375.473 265.329C375.258 265.311 375.045 265.373 374.873 265.504C374.702 265.635 374.586 265.825 374.546 266.037V266.037Z" fill="#407BFF"/>
<path d="M371.826 297.036L371.262 303.563C371.265 303.778 371.348 303.985 371.495 304.142C371.642 304.3 371.843 304.397 372.057 304.415C372.272 304.433 372.486 304.371 372.657 304.24C372.829 304.109 372.945 303.919 372.984 303.707L373.549 297.195C373.549 296.978 373.468 296.769 373.322 296.609C373.177 296.449 372.976 296.349 372.76 296.329C372.544 296.309 372.329 296.37 372.156 296.501C371.983 296.632 371.866 296.823 371.826 297.036V297.036Z" fill="#407BFF"/>
<g opacity="0.3">
<path d="M374.546 266.037L372.549 288.729C372.53 288.959 372.603 289.188 372.752 289.364C372.901 289.54 373.115 289.65 373.345 289.669C373.575 289.689 373.804 289.616 373.98 289.466C374.157 289.317 374.267 289.104 374.286 288.873C374.942 281.319 375.603 273.755 376.269 266.181C376.266 265.966 376.183 265.759 376.036 265.602C375.889 265.444 375.688 265.347 375.473 265.329C375.258 265.311 375.045 265.373 374.873 265.504C374.702 265.635 374.586 265.825 374.546 266.037V266.037Z" fill="white"/>
</g>
<g opacity="0.3">
<path d="M371.826 297.036L371.262 303.563C371.265 303.778 371.348 303.985 371.495 304.142C371.642 304.3 371.843 304.397 372.057 304.415C372.272 304.433 372.486 304.371 372.657 304.24C372.829 304.109 372.945 303.919 372.984 303.707L373.549 297.195C373.549 296.978 373.468 296.769 373.322 296.609C373.177 296.449 372.976 296.349 372.76 296.329C372.544 296.309 372.329 296.37 372.156 296.501C371.983 296.632 371.866 296.823 371.826 297.036V297.036Z" fill="white"/>
</g>
<path d="M173.563 165.051C173.563 165.051 165.167 163.908 166.181 168.279C166.919 171.462 169.741 165.196 173.563 165.051Z" fill="#263238"/>
<path d="M166.268 174.979C166.268 174.979 173.187 174.907 174.258 162.302C174.258 162.302 180.858 160.001 184.607 164.111C188.356 168.221 179.744 176.18 184.492 180.319C184.492 180.319 179.744 182.91 166.268 174.979Z" fill="#FF8B7B"/>
<path d="M191.873 130.449C191.873 130.449 200.789 128.539 203.105 135.094C205.421 141.65 189.904 138.77 189.904 138.77L191.873 130.449Z" fill="#263238"/>
<path opacity="0.3" d="M191.873 130.449C191.873 130.449 200.789 128.539 203.105 135.094C205.421 141.65 189.904 138.77 189.904 138.77L191.873 130.449Z" fill="black"/>
<path d="M199.169 146.788C199.313 145.948 199.864 145.34 200.414 145.442C200.964 145.543 201.297 146.281 201.152 147.12C201.007 147.96 200.443 148.568 199.907 148.481C199.371 148.394 199.024 147.627 199.169 146.788Z" fill="#263238"/>
<path d="M199.603 148.365L203.497 154.675C202.758 155.131 201.922 155.406 201.057 155.479C200.192 155.552 199.322 155.42 198.518 155.095L199.603 148.365Z" fill="#FF5652"/>
<path d="M170.118 142.735C169.626 153.459 169.191 158.003 173.983 164.038C181.611 170.493 194.494 171.39 198.17 161.014C201.485 151.694 201.731 135.76 191.743 130.347C189.548 129.157 187.085 128.547 184.588 128.576C182.091 128.605 179.643 129.272 177.476 130.513C175.309 131.755 173.496 133.529 172.208 135.668C170.92 137.807 170.201 140.24 170.118 142.735V142.735Z" fill="#FF8B7B"/>
<path d="M197.822 144.139C197.893 144.179 197.973 144.199 198.054 144.199C198.135 144.199 198.214 144.179 198.285 144.139C198.782 143.763 199.361 143.509 199.975 143.399C200.589 143.288 201.22 143.324 201.817 143.503C201.938 143.55 202.073 143.548 202.192 143.496C202.312 143.445 202.406 143.348 202.454 143.228C202.502 143.105 202.5 142.968 202.449 142.846C202.398 142.724 202.301 142.628 202.179 142.576C201.428 142.333 200.629 142.274 199.85 142.405C199.072 142.536 198.336 142.853 197.706 143.329C197.653 143.363 197.606 143.407 197.57 143.459C197.533 143.511 197.508 143.569 197.494 143.631C197.481 143.693 197.48 143.757 197.491 143.82C197.503 143.882 197.527 143.942 197.562 143.995V143.995C197.629 144.072 197.721 144.123 197.822 144.139V144.139Z" fill="#263238"/>
<path d="M161.403 177.15C161.403 177.15 164.385 168.915 176.732 174.169C189.079 179.422 190.237 186.658 190.237 186.658L161.403 177.15Z" fill="#263238"/>
<path opacity="0.4" d="M161.403 177.15C161.403 177.15 164.385 168.915 176.732 174.169C189.079 179.422 190.237 186.658 190.237 186.658L161.403 177.15Z" fill="black"/>
<path d="M166.947 333.216C166.947 333.216 165.195 348.224 164.356 353.188C163.603 357.529 139.748 471.424 139.748 471.424L128.907 469.629C128.907 469.629 127.705 411.929 136.057 373.738C137.78 365.923 141.239 359.382 142.499 353.405C143.512 348.615 141.978 333.795 141.978 333.795L166.947 333.216Z" fill="#FF8B7B"/>
<path d="M121.669 330.77C121.669 330.77 116.618 344.518 114.258 348.773C111.696 353.404 101.969 366.009 101.969 366.009L50.1487 438.702L40.2334 432.436C40.2334 432.436 55.186 392.406 77.7091 359.815C83.0793 352.044 90.8089 346.125 95.079 338.411C97.4963 333.983 99.5518 318.7 99.5518 318.7L121.669 330.77Z" fill="#FF8B7B"/>
<path d="M135.566 191.607C135.566 191.607 123.161 207.425 124.217 214.068C125.274 220.711 144.714 228.8 144.714 228.8L149.65 221.782L136.883 212.462L149.042 198.525L135.566 191.607Z" fill="#FF8B7B"/>
<path d="M156.077 175.775C154.528 175.037 147.652 172.287 132.815 191.564C132.815 191.564 138.215 198.293 149.78 202.302C149.78 202.259 162.808 178.915 156.077 175.775Z" fill="#263238"/>
<path opacity="0.4" d="M149.78 202.259C149.78 202.259 151.951 198.38 154.123 193.576C153.775 185.312 152.762 175.051 149.867 178.742C146.017 183.633 140.69 193.489 138.938 196.788C142.289 199.092 145.936 200.932 149.78 202.259V202.259Z" fill="black"/>
<path d="M138.098 239.886C152.356 247.581 168.105 252.112 184.273 253.172L167.54 346.386C167.54 346.386 119.281 346.226 94.0508 322.261C94.0508 322.203 104.111 271.406 138.098 239.886Z" fill="#407BFF"/>
<path d="M136.058 240.089C136.058 240.089 155.382 254.329 186.155 253.359C186.155 253.359 203.829 204.473 192.756 187.932C185.909 177.714 159.623 173.098 152.545 176.007C144.019 179.509 148.955 210.161 136.058 240.089Z" fill="#263238"/>
<path opacity="0.1" d="M140.69 290.307L119.194 337.297C126.731 340.034 134.476 342.158 142.354 343.65C142.354 343.65 143.078 299.757 140.69 290.307Z" fill="black"/>
<path opacity="0.4" d="M184.65 195.935L181.234 198.453C183.97 207.971 188.275 216.965 193.972 225.067C195.434 218.246 196.243 211.302 196.39 204.328L188.776 197.917L184.65 195.935Z" fill="black"/>
<path d="M204.018 202.997L215.598 219.133L244.708 221.073L250.049 216.63C250.404 216.329 250.844 216.147 251.308 216.109L266.854 214.879C266.966 214.872 267.078 214.89 267.183 214.93C267.288 214.97 267.383 215.031 267.462 215.11C267.541 215.19 267.603 215.285 267.643 215.389C267.683 215.494 267.7 215.606 267.694 215.718L267.607 217.035C267.591 217.223 267.51 217.4 267.378 217.534C267.246 217.669 267.071 217.753 266.883 217.773L259.515 218.352L258.068 225.892C257.984 226.316 257.782 226.709 257.485 227.023C257.188 227.338 256.808 227.563 256.389 227.672L250.599 229.119C250.229 229.221 249.839 229.221 249.47 229.119L245.388 228.092C245.388 228.092 222.706 232.665 212.298 230.827C201.891 228.989 191.628 212.013 191.628 212.013L204.018 202.997Z" fill="#FF8B7B"/>
<path d="M190.614 215.284C190.614 215.284 171.97 190.349 183.477 184.56C194.985 178.771 207.072 204.386 207.072 204.386C207.072 204.386 202.353 211.593 190.614 215.284Z" fill="#263238"/>
<path d="M142.123 470.772C142.067 470.761 142.016 470.732 141.977 470.691C141.938 470.649 141.913 470.597 141.905 470.54C141.897 470.481 141.906 470.421 141.932 470.367C141.958 470.313 141.999 470.267 142.05 470.237C142.238 470.15 146.508 467.907 148.492 468.543C148.675 468.596 148.846 468.685 148.995 468.804C149.144 468.923 149.268 469.071 149.36 469.238C149.491 469.416 149.561 469.632 149.561 469.853C149.561 470.074 149.491 470.29 149.36 470.468C148.316 471.159 147.052 471.438 145.814 471.25C144.571 471.208 143.335 471.048 142.123 470.772V470.772ZM143.063 470.425C145.278 470.786 148.303 470.888 148.853 470.121C148.94 470.034 149.027 469.86 148.853 469.498C148.801 469.393 148.725 469.301 148.633 469.229C148.54 469.156 148.433 469.105 148.318 469.079C148.14 469.021 147.955 468.991 147.768 468.992C146.123 469.167 144.526 469.653 143.063 470.425V470.425Z" fill="#407BFF"/>
<path d="M141.935 470.758C141.892 470.731 141.858 470.691 141.838 470.645C141.817 470.599 141.811 470.548 141.819 470.498C141.819 470.339 142.282 467.126 143.845 465.925C144.071 465.75 144.33 465.624 144.606 465.552C144.882 465.479 145.17 465.464 145.452 465.505C146.234 465.606 146.451 466.011 146.48 466.344C146.682 467.69 143.701 470.179 142.239 470.773H142.123C142.06 470.789 141.994 470.784 141.935 470.758ZM145.235 466.026C144.879 466.007 144.528 466.121 144.251 466.344C143.312 467.342 142.705 468.606 142.514 469.962C143.961 469.137 146.002 467.184 145.959 466.359C145.959 466.286 145.959 466.084 145.409 466.026H145.235Z" fill="#407BFF"/>
<path d="M140.965 469.05L127.938 468.558C127.697 468.551 127.461 468.626 127.269 468.77C127.077 468.915 126.94 469.121 126.881 469.354L124.116 479.904C123.997 480.351 124.059 480.828 124.289 481.229C124.52 481.63 124.9 481.924 125.347 482.046C125.471 482.067 125.598 482.067 125.723 482.046C130.442 482.147 134.639 482.046 140.516 482.278C147.45 482.538 145.655 483.291 153.804 483.725C158.711 483.971 159.811 478.428 157.741 478.081C148.26 476.532 147.377 473.609 143.831 470.063C143.029 469.391 142.011 469.032 140.965 469.05V469.05Z" fill="#263238"/>
<path d="M51.771 439.412C51.7288 439.372 51.6984 439.321 51.6831 439.265C51.6678 439.209 51.6682 439.149 51.6842 439.093C51.7024 439.039 51.7373 438.991 51.7841 438.957C51.8308 438.924 51.887 438.905 51.9447 438.905C52.1618 438.905 56.982 438.905 58.4729 440.352C58.7521 440.624 58.9177 440.991 58.9361 441.38C58.965 441.599 58.9247 441.821 58.8209 442.016C58.7171 442.21 58.5549 442.368 58.3571 442.465C57.1078 442.605 55.8508 442.28 54.8252 441.554C53.7444 440.934 52.7222 440.217 51.771 439.412V439.412ZM52.7698 439.528C54.5791 440.845 57.2425 442.292 58.111 441.872C58.2268 441.872 58.3716 441.727 58.3571 441.308C58.3583 441.189 58.333 441.071 58.2829 440.964C58.2328 440.856 58.1592 440.761 58.0676 440.685C57.9339 440.558 57.7828 440.451 57.6189 440.367C56.0646 439.811 54.4199 439.551 52.7698 439.6V439.528Z" fill="#407BFF"/>
<path d="M51.6543 439.325C51.6256 439.282 51.6104 439.232 51.6104 439.18C51.6104 439.129 51.6256 439.078 51.6543 439.035C51.7411 438.92 53.5794 436.242 55.5335 435.881C55.81 435.826 56.0946 435.828 56.3705 435.885C56.6465 435.942 56.9082 436.054 57.1403 436.213C57.7916 436.662 57.8206 437.125 57.6903 437.429C57.2561 438.732 53.4781 439.614 51.9003 439.484C51.8629 439.497 51.822 439.497 51.7845 439.484C51.7222 439.45 51.6755 439.393 51.6543 439.325V439.325ZM56.735 436.604C56.4259 436.421 56.0595 436.359 55.7073 436.431C54.4187 436.905 53.3071 437.764 52.5228 438.891C54.2598 438.891 56.8653 437.965 57.2271 437.226C57.2271 437.154 57.314 436.952 56.8797 436.662H56.735V436.604Z" fill="#407BFF"/>
<path d="M51.5097 437.356L40.06 431.017C39.8505 430.9 39.6073 430.858 39.3705 430.897C39.1337 430.937 38.9174 431.056 38.7572 431.234L31.5197 439.411C31.3656 439.582 31.2467 439.782 31.1699 439.999C31.093 440.216 31.0597 440.445 31.0718 440.675C31.0839 440.905 31.1412 441.13 31.2404 441.338C31.3396 441.546 31.4788 441.732 31.65 441.886L31.954 442.103C36.1228 444.317 39.9297 446.126 45.0683 448.977C51.1333 452.334 49.1937 452.204 56.2719 456.213C60.6144 458.659 64.0305 454.201 62.3369 452.957C54.5784 447.298 55.0994 444.274 53.5362 439.527C53.1368 438.588 52.4194 437.819 51.5097 437.356V437.356Z" fill="#263238"/>
<path d="M188.254 151.954C188.254 151.954 192.597 150.507 191.005 144.212C191.005 144.212 193.567 139.87 193.161 137.569C193.161 137.569 206.189 130.058 198.749 121.824C191.309 113.589 177.804 119.088 171.825 129.61C171.825 129.61 140.053 139.943 162.171 159.364C183.695 178.337 188.254 151.954 188.254 151.954Z" fill="#263238"/>
<path d="M175.14 134.023C175.14 134.023 170.175 123.126 177.63 114.891C185.085 106.657 172.68 126.498 175.14 134.023Z" fill="#263238"/>
<path d="M188.255 151.954C188.378 151.914 188.499 151.866 188.617 151.809C188.617 143.647 185.476 133.864 173.432 127.207C172.854 127.988 172.317 128.8 171.826 129.638C171.826 129.638 170.914 129.942 169.51 130.521C173.679 134.95 185.128 149.61 172.26 165.63C185.157 169.653 188.255 151.954 188.255 151.954Z" fill="#407BFF"/>
<path d="M188.761 148.134C190.24 149.753 191.015 151.892 190.918 154.082C190.759 156.976 187.922 157.54 185.664 155.978C183.623 154.53 181.249 151.346 182.523 148.742C182.809 148.188 183.23 147.716 183.746 147.366C184.261 147.017 184.857 146.803 185.477 146.742C186.097 146.682 186.722 146.777 187.296 147.02C187.87 147.264 188.373 147.646 188.761 148.134V148.134Z" fill="#FF8B7B"/>
<path d="M200.211 145.456L202.556 145.34C202.556 145.34 201.022 146.802 200.211 145.456Z" fill="#263238"/>
<path opacity="0.2" d="M178.744 167.048C179.919 169.423 181.727 171.426 183.97 172.837C184.476 171.524 184.916 170.186 185.287 168.828C183.02 168.616 180.806 168.014 178.744 167.048V167.048Z" fill="black"/>
</g>
<defs>
<clipPath id="clip0_3658_3658">
<rect width="590" height="509" fill="white"/>
</clipPath>
</defs>
</svg>
