<svg width="72" height="80" viewBox="0 0 72 80" fill="none" xmlns="http://www.w3.org/2000/svg">
<g clip-path="url(#clip0_3583_2598)">
<path d="M6.6031 72.0029L0.0644531 0H71.9372L65.3898 71.9914L35.9572 80L6.6031 72.0029Z" fill="#1572B6"/>
<path d="M36 73.8801L59.7849 67.4087L65.3803 5.88867H36V73.8801Z" fill="#33A9DC"/>
<path d="M36 31.9744H47.907L48.728 22.9315H36V14.1001H58.5621L58.3467 16.4687L56.1371 40.8058H36V31.9744V31.9744Z" fill="white"/>
<path d="M36.0566 54.9093L36.0158 54.9207L25.9953 52.2636L25.3549 45.2207H16.3213L17.5819 59.0864L36.0129 64.1093L36.0566 64.0978V54.9093V54.9093Z" fill="#EBEBEB"/>
<path d="M47.1405 40.4312L46.0575 52.2569L36.0225 54.914V64.1026L54.4681 59.0854L54.6049 57.594L56.1683 40.4312H47.1405V40.4312Z" fill="white"/>
<path d="M36.031 14.1001V22.9315H14.2957L14.1152 20.9458L13.7047 16.4687L13.4893 14.1001H36.031V14.1001ZM35.999 31.9744V40.8058H26.1037L25.9232 38.8201L25.5156 34.343L25.3002 31.9744H35.999V31.9744Z" fill="#EBEBEB"/>
</g>
<defs>
<clipPath id="clip0_3583_2598">
<rect width="72" height="80" fill="white"/>
</clipPath>
</defs>
</svg>
