<svg width="30" height="40" viewBox="0 0 30 40" fill="none" xmlns="http://www.w3.org/2000/svg">
<path d="M7.40005 39.9994C11.4849 39.9994 14.8001 37.0127 14.8001 33.3327V26.666H7.40005C3.31522 26.666 0 29.6527 0 33.3327C0 37.0127 3.31522 39.9994 7.40005 39.9994Z" fill="#0ACF83"/>
<path d="M0 20.0007C0 16.3207 3.31522 13.334 7.40005 13.334H14.8001V26.6674H7.40005C3.31522 26.6674 0 23.6807 0 20.0007Z" fill="#A259FF"/>
<path d="M0 6.66671C0 2.98669 3.31522 0 7.40005 0H14.8001V13.3334H7.40005C3.31522 13.3334 0 10.3467 0 6.66671Z" fill="#F24E1E"/>
<path d="M14.7998 0H22.1999C26.2847 0 29.5999 2.98669 29.5999 6.66671C29.5999 10.3467 26.2847 13.3334 22.1999 13.3334H14.7998V0Z" fill="#FF7262"/>
<path d="M29.5999 20.0007C29.5999 23.6807 26.2847 26.6674 22.1999 26.6674C18.115 26.6674 14.7998 23.6807 14.7998 20.0007C14.7998 16.3207 18.115 13.334 22.1999 13.334C26.2847 13.334 29.5999 16.3207 29.5999 20.0007Z" fill="#1ABCFE"/>
</svg>
