<svg width="70" height="80" viewBox="0 0 70 80" fill="none" xmlns="http://www.w3.org/2000/svg">
<g clip-path="url(#clip0_3583_2593)">
<path d="M6.36986 72.0029L-0.000976562 0H70.0016L63.6223 71.9914L34.9578 80L6.36986 72.0029Z" fill="#E44F26"/>
<path d="M35 73.8801L58.1641 67.4087L63.6135 5.88867H35V73.8801Z" fill="#F1662A"/>
<path d="M35.0006 32.5911H23.4044L22.6049 23.5482H35.0006V14.7168H13.0273L13.2372 17.0882L15.3891 41.4225H35.0006V32.5911V32.5911ZM35.0006 55.5254L34.9609 55.5368L25.202 52.8825L24.5782 45.8397H15.7804L17.0081 59.7025L34.9609 64.7254L35.0006 64.7139V55.5254Z" fill="#EBEBEB"/>
<path d="M34.9697 32.5911V41.4225H45.7607L44.7457 52.8768L34.9697 55.5339V64.7225L52.9368 59.7025L53.0672 58.2111L55.1256 34.9625L55.3411 32.5911H34.9697V32.5911ZM34.9697 14.7168V23.5482H56.1378L56.3136 21.5654L56.7134 17.0882L56.9232 14.7168H34.9697V14.7168Z" fill="white"/>
</g>
<defs>
<clipPath id="clip0_3583_2593">
<rect width="70" height="80" fill="white"/>
</clipPath>
</defs>
</svg>
