<svg width="38" height="40" viewBox="0 0 38 40" fill="none" xmlns="http://www.w3.org/2000/svg">
<path d="M6.558 7.01165C7.78345 8.02035 8.24763 7.9491 10.5611 7.79286L32.3716 6.47168C32.8358 6.47168 32.4496 6.00296 32.2936 5.92421L28.6705 3.28061C27.981 2.73314 27.0527 2.11567 25.2789 2.26441L4.16528 3.82683C3.39164 3.89807 3.23691 4.2893 3.54637 4.60178L6.558 7.01165ZM7.86638 12.1489V35.3176C7.86638 36.5613 8.4791 37.03 9.86547 36.9513L33.836 35.5513C35.2223 35.4726 35.3832 34.6201 35.3832 33.6052V10.5927C35.3832 9.57651 34.9958 9.03654 34.1454 9.11529L9.09925 10.5927C8.17089 10.6715 7.86762 11.1327 7.86762 12.1426L7.86638 12.1489ZM31.5274 13.3851C31.6821 14.0888 31.5274 14.785 30.8305 14.87L29.6769 15.105V32.2065C28.6705 32.754 27.7496 33.0665 26.9821 33.0665C25.7443 33.0665 25.4348 32.6753 24.5127 31.5103L16.957 19.5322V31.1203L19.3484 31.6678C19.3484 31.6678 19.3484 33.0677 17.4212 33.0677L12.1022 33.3802C11.9475 33.0677 12.1022 32.2865 12.6444 32.1365L14.0307 31.7453V16.4274L12.1035 16.2711C11.9487 15.5674 12.3362 14.5587 13.4118 14.4812L19.117 14.09L26.9821 26.2244V15.4887L24.9768 15.2537C24.8221 14.4012 25.4348 13.7763 26.2085 13.7038L31.5274 13.3851ZM2.39272 1.72569L24.3579 0.0920295C27.0527 -0.142958 27.7496 0.0132838 29.4442 1.25697L36.4589 6.23669C37.6126 7.08915 38 7.32413 38 8.25533V35.5526C38 37.265 37.3811 38.2737 35.2273 38.4299L9.7095 39.9861C8.09785 40.0648 7.32421 39.8299 6.47259 38.7424L1.30838 31.9715C0.386202 30.7279 0 29.7967 0 28.7105V4.44804C0 3.04812 0.618913 1.88318 2.39148 1.72694L2.39272 1.72569Z" fill="white"/>
</svg>
