<svg width="35" height="35" viewBox="0 0 35 35" fill="none" xmlns="http://www.w3.org/2000/svg">
<g clip-path="url(#clip0_3718_3618)">
<path d="M27.6348 16.7411C27.6348 14.8861 26.9676 13.602 26.3967 12.6023L26.2217 12.3179C25.5283 11.2023 24.9223 10.2223 24.9223 9.08044C24.9223 7.70232 25.9679 6.41607 27.4423 6.41607C27.4861 6.41607 27.5276 6.42044 27.5692 6.42263L27.637 6.42919C24.8724 3.88981 21.254 2.48275 17.5001 2.48732C15.0122 2.48604 12.5631 3.1038 10.3734 4.28494C8.18374 5.46607 6.32236 7.17347 4.957 9.25325C5.307 9.26419 5.64169 9.27294 5.92388 9.27294C7.49232 9.27294 9.92263 9.08263 9.92263 9.08263C10.732 9.0345 10.8283 10.2223 10.0189 10.3186C10.0189 10.3186 9.20732 10.4148 8.30169 10.4608L13.7704 26.7226L17.0517 16.8658L14.7111 10.4586C13.9039 10.4104 13.1383 10.3164 13.1383 10.3164C12.3289 10.2683 12.4251 9.03013 13.2323 9.07825C13.2323 9.07825 15.7129 9.26857 17.1873 9.26857C18.7579 9.26857 21.1904 9.07825 21.1904 9.07825C21.9998 9.03013 22.0939 10.2201 21.2845 10.3164C21.2845 10.3164 20.4708 10.4104 19.5673 10.4586L24.9923 26.5958L26.4886 21.5929L26.6067 21.2145C27.1973 19.3333 27.6326 17.9442 27.6326 16.7389L27.6348 16.7411ZM2.48732 17.5001C2.48717 20.3193 3.28068 23.0815 4.77704 25.4707C6.2734 27.8599 8.41216 29.7796 10.9486 31.0101L3.7845 11.3883C2.92663 13.3115 2.48459 15.3942 2.48732 17.5001V17.5001Z" fill="#1081E8"/>
<path d="M13.2588 31.9001L17.765 18.8123L22.3785 31.4561C22.4091 31.5283 22.4441 31.5961 22.4857 31.6617C19.5116 32.7095 16.283 32.7929 13.2588 31.9001V31.9001ZM30.6713 10.2964C30.7369 10.7754 30.7741 11.2873 30.7741 11.8408C30.7741 13.3633 30.4897 15.0761 29.6322 17.2176L25.0472 30.4739C28.4307 28.5081 30.9124 25.2985 31.9634 21.5292C33.0144 17.76 32.5515 13.7293 30.6735 10.2964H30.6713Z" fill="#1081E8"/>
<path fill-rule="evenodd" clip-rule="evenodd" d="M0 17.5C0 7.85094 7.85094 0 17.5 0C27.1469 0 35 7.85094 35 17.5C35 27.1491 27.1469 35 17.5 35C7.85094 35 0 27.1491 0 17.5ZM0.802813 17.5C0.802813 26.7072 8.29281 34.1972 17.5 34.1972C26.705 34.1972 34.195 26.7072 34.195 17.5C34.195 8.29062 26.705 0.802813 17.5 0.802813C8.29062 0.802813 0.802813 8.29062 0.802813 17.5Z" fill="#1081E8"/>
</g>
<defs>
<clipPath id="clip0_3718_3618">
<rect width="35" height="35" fill="white"/>
</clipPath>
</defs>
</svg>
