<svg width="80" height="80" viewBox="0 0 80 80" fill="none" xmlns="http://www.w3.org/2000/svg">
<g clip-path="url(#clip0_3583_2605)">
<path d="M0 0H80V80H0V0Z" fill="#F7DF1E"/>
<path d="M21.0355 66.8538L27.1573 63.1488C28.3386 65.2429 29.413 67.0147 31.9902 67.0147C34.4605 67.0147 36.0183 66.0485 36.0183 62.2897V36.7279H43.5361V62.396C43.5361 70.1825 38.9717 73.7269 32.3123 73.7269C26.2983 73.7269 22.8073 70.6122 21.0352 66.8532M47.6195 66.0482L53.7408 62.5041C55.3523 65.1357 57.4467 67.0688 61.1517 67.0688C64.267 67.0688 66.2533 65.5113 66.2533 63.3632C66.2533 60.7857 64.2127 59.8725 60.7758 58.3694L58.8967 57.5632C53.4727 55.2547 49.8748 52.3547 49.8748 46.2329C49.8748 40.5941 54.1708 36.2979 60.8836 36.2979C65.663 36.2979 69.0998 37.9628 71.5698 42.3125L65.7161 46.0719C64.427 43.7629 63.0314 42.85 60.8833 42.85C58.6814 42.85 57.2852 44.2463 57.2852 46.0719C57.2852 48.3272 58.6814 49.2407 61.9033 50.6369L63.7826 51.4422C70.1733 54.1813 73.7711 56.9735 73.7711 63.256C73.7711 70.0229 68.4548 73.7279 61.3127 73.7279C54.3317 73.7279 49.8208 70.3985 47.6192 66.0485" fill="black"/>
</g>
<defs>
<clipPath id="clip0_3583_2605">
<rect width="80" height="80" fill="white"/>
</clipPath>
</defs>
</svg>
