<svg width="89" height="80" viewBox="0 0 89 80" fill="none" xmlns="http://www.w3.org/2000/svg">
<g clip-path="url(#clip0_3583_2608)">
<path d="M73.1757 25.9036C72.2286 25.5756 71.2734 25.2718 70.311 24.9924C70.4727 24.3257 70.6215 23.6671 70.7536 23.0201C72.9223 12.3952 71.5045 3.83551 66.662 1.01727C62.0191 -1.68448 54.4259 1.13271 46.7573 7.8685C46.0016 8.53353 45.2626 9.21772 44.541 9.92043C44.058 9.45315 43.5664 8.99494 43.0666 8.54604C35.0295 1.34394 26.9736 -1.6915 22.1363 1.13481C17.4975 3.84499 16.1239 11.8917 18.0764 21.9611C18.2706 22.9584 18.49 23.9505 18.7342 24.9366C17.5938 25.2636 16.4935 25.6117 15.4405 25.9822C6.01758 29.298 0 34.4941 0 39.8839C0 45.4506 6.46015 51.0341 16.2745 54.4197C17.0702 54.6931 17.8724 54.9464 18.6806 55.1794C18.4181 56.2414 18.1851 57.3106 17.9818 58.3857C16.1205 68.2804 17.574 76.1369 22.2003 78.8299C26.9785 81.6109 34.9982 78.7527 42.8069 71.8632C43.4401 71.3031 44.0594 70.7272 44.6641 70.1359C45.4455 70.8968 46.2477 71.6355 47.0699 72.3513C54.6342 78.9204 62.1046 81.5731 66.7264 78.8727C71.5 76.0836 73.0516 67.6436 71.0373 57.3752C70.8786 56.5707 70.7007 55.7702 70.5036 54.9745C71.0668 54.806 71.6196 54.6327 72.1585 54.4524C82.3615 51.0408 89 45.525 89 39.8839C89 34.4745 82.7881 29.2432 73.1757 25.9036V25.9036ZM70.9629 50.8102C70.4762 50.9727 69.9769 51.1295 69.468 51.2822C68.3416 47.6832 66.8216 43.8566 64.9613 39.9025C66.7364 36.0429 68.198 32.265 69.2928 28.6895C70.2033 28.9555 71.0867 29.2359 71.9384 29.5317C80.1744 32.3934 85.198 36.6239 85.198 39.8839C85.198 43.3562 79.7725 47.8639 70.9629 50.8102V50.8102ZM67.3076 58.1204C68.1983 62.6608 68.3252 66.766 67.7353 69.9755C67.2054 72.8594 66.1395 74.7818 64.8212 75.552C62.0167 77.1906 56.0185 75.0608 49.5497 69.4425C48.785 68.777 48.0387 68.0902 47.3118 67.3829C49.8198 64.6148 52.3261 61.3969 54.7722 57.8229C59.0748 57.4376 63.1396 56.8074 66.8258 55.9474C67.0034 56.6678 67.164 57.3924 67.3076 58.1204V58.1204ZM30.342 75.2688C27.6018 76.2453 25.4192 76.2734 24.0999 75.5057C21.2926 73.8717 20.1255 67.5632 21.7174 59.1015C21.9066 58.1016 22.1233 57.1072 22.3672 56.1194C26.0127 56.9334 30.0479 57.5187 34.3606 57.8717C36.8234 61.3688 39.402 64.5832 42.0007 67.398C41.4484 67.9373 40.8831 68.4629 40.3052 68.9741C36.8519 72.0204 33.3917 74.1818 30.342 75.2688V75.2688ZM17.5045 50.7888C13.1647 49.2917 9.58071 47.346 7.12417 45.2229C4.91655 43.3152 3.80232 41.4208 3.80232 39.8839C3.80232 36.6131 8.6337 32.4411 16.692 29.6057C17.67 29.2618 18.6935 28.9373 19.7556 28.6327C20.8695 32.2888 22.3303 36.1117 24.0933 39.9773C22.3074 43.9001 20.8257 47.7839 19.701 51.4832C18.9633 51.27 18.2309 51.0384 17.5045 50.7888V50.7888ZM21.8078 21.2239C20.1352 12.5969 21.246 6.0892 24.0415 4.45587C27.0188 2.71622 33.6027 5.19657 40.5423 11.4155C40.9948 11.822 41.44 12.2367 41.8776 12.6594C39.2918 15.4618 36.7368 18.6524 34.2959 22.1288C30.1102 22.5204 26.1034 23.1492 22.4197 23.9917C22.1927 23.0745 21.9887 22.1518 21.8078 21.2243V21.2239ZM60.1984 30.7917C59.3283 29.2748 58.4259 27.777 57.4919 26.2994C60.3316 26.6618 63.0523 27.1429 65.6073 27.731C64.8403 30.2124 63.8843 32.8064 62.7589 35.466C61.9363 33.8909 61.0827 32.3324 60.1984 30.7917V30.7917ZM44.5428 15.4018C46.2963 17.3194 48.0527 19.4601 49.7802 21.7829C46.2758 21.6158 42.7656 21.6151 39.2612 21.7808C40.9904 19.4794 42.7617 17.3415 44.5428 15.4018ZM28.7866 30.818C27.9134 32.3463 27.0757 33.8951 26.2741 35.4629C25.1672 32.8127 24.2198 30.2067 23.4463 27.6902C25.9856 27.1169 28.6935 26.6481 31.515 26.2924C30.5706 27.779 29.6609 29.2879 28.7866 30.8176V30.818ZM31.596 53.7485C28.6809 53.4201 25.9324 52.9755 23.3938 52.4176C24.1795 49.8562 25.1477 47.1948 26.2786 44.4878C27.0834 46.0568 27.9246 47.6064 28.8016 49.1355C29.7034 50.7074 30.6372 52.2471 31.596 53.7485ZM44.6478 64.6362C42.8455 62.6741 41.0481 60.5032 39.2928 58.1685C40.997 58.2359 42.7343 58.2702 44.5 58.2702C46.3141 58.2702 48.1073 58.2292 49.8723 58.1499C48.1393 60.5267 46.3895 62.7008 44.6478 64.6362ZM62.7947 44.3495C63.9844 47.0864 64.987 49.7338 65.7832 52.2513C63.2029 52.8457 60.4167 53.3243 57.4811 53.6797C58.4218 52.1746 59.3327 50.6508 60.2134 49.1092C61.1087 47.5422 61.9694 45.9552 62.7947 44.3495V44.3495ZM56.92 47.192C55.5719 49.5556 54.1479 51.8744 52.6505 54.1446C49.9379 54.3385 47.2194 54.4348 44.5 54.4334C41.7302 54.4334 39.0362 54.3464 36.442 54.1766C34.9055 51.9116 33.4544 49.5888 32.0918 47.2131H32.0921C30.736 44.8499 29.4693 42.4357 28.2947 39.9755C29.4663 37.5148 30.7292 35.0994 32.0807 32.7345L32.0803 32.7348C33.4313 30.3693 34.8708 28.0564 36.3958 25.8011C39.0425 25.599 41.7566 25.4938 44.4997 25.4938H44.5C47.2555 25.4938 49.9732 25.6001 52.6192 25.8036C54.1287 28.0555 55.559 30.3604 56.9075 32.7141C58.2635 35.0738 59.5431 37.4774 60.7442 39.9211C59.5554 42.3898 58.2799 44.815 56.92 47.192V47.192ZM64.7631 4.34148C67.7433 6.07622 68.9023 13.0717 67.0299 22.2453C66.9103 22.8306 66.7761 23.4267 66.6301 24.0313C62.9373 23.171 58.9277 22.5313 54.7298 22.1338C52.2844 18.619 49.7503 15.4236 47.2065 12.6573C47.8732 12.0087 48.5557 11.3769 49.2535 10.7625C55.8242 4.99166 61.9652 2.71306 64.7631 4.34148V4.34148ZM44.5 31.8629C48.8892 31.8629 52.4474 35.4541 52.4474 39.8839C52.4474 44.3138 48.8892 47.905 44.5 47.905C40.1108 47.905 36.5526 44.3138 36.5526 39.8839C36.5526 35.4541 40.1108 31.8629 44.5 31.8629V31.8629Z" fill="#00D8FF"/>
</g>
<defs>
<clipPath id="clip0_3583_2608">
<rect width="89" height="80" fill="white"/>
</clipPath>
</defs>
</svg>
