<svg width="39" height="39" viewBox="0 0 39 39" fill="none" xmlns="http://www.w3.org/2000/svg">
<rect width="39" height="39" rx="8" fill="#1B1E20"/>
<g filter="url(#filter0_d_3398_2907)">
<path fill-rule="evenodd" clip-rule="evenodd" d="M15.6242 17.6582L16.2634 19.5347L11.3562 22.3116L17.6133 26.538V28.8436L7.49316 22.2593L15.6242 17.6582Z" fill="#0F76E5"/>
<path fill-rule="evenodd" clip-rule="evenodd" d="M17.287 28.8572L17.2855 10.479L19.0172 9.86592L19.2543 28.0038L17.287 28.8572Z" fill="#0F76E5"/>
</g>
<g filter="url(#filter1_d_3398_2907)">
<path fill-rule="evenodd" clip-rule="evenodd" d="M21.5694 28.8432V10.8857L19.7432 9.89648V28.0031L21.5694 28.8432Z" fill="#0F76E5"/>
<path fill-rule="evenodd" clip-rule="evenodd" d="M31.4612 25.6475H20.2997L19.7432 27.778H29.9296L31.4612 25.6475Z" fill="#0F76E5"/>
</g>
<path d="M12.5529 4.875V4.875C8.58166 4.875 5.3623 8.09435 5.3623 12.0656V12.0656M26.9342 33.6375V33.6375C30.9055 33.6375 34.1248 30.4181 34.1248 26.4469V26.4469" stroke="white"/>
<defs>
<filter id="filter0_d_3398_2907" x="3.49316" y="9.86594" width="19.7611" height="26.9912" filterUnits="userSpaceOnUse" color-interpolation-filters="sRGB">
<feFlood flood-opacity="0" result="BackgroundImageFix"/>
<feColorMatrix in="SourceAlpha" type="matrix" values="0 0 0 0 0 0 0 0 0 0 0 0 0 0 0 0 0 0 127 0" result="hardAlpha"/>
<feOffset dy="4"/>
<feGaussianBlur stdDeviation="2"/>
<feComposite in2="hardAlpha" operator="out"/>
<feColorMatrix type="matrix" values="0 0 0 0 0 0 0 0 0 0 0 0 0 0 0 0 0 0 0.25 0"/>
<feBlend mode="normal" in2="BackgroundImageFix" result="effect1_dropShadow_3398_2907"/>
<feBlend mode="normal" in="SourceGraphic" in2="effect1_dropShadow_3398_2907" result="shape"/>
</filter>
<filter id="filter1_d_3398_2907" x="15.7432" y="9.89648" width="19.718" height="26.9467" filterUnits="userSpaceOnUse" color-interpolation-filters="sRGB">
<feFlood flood-opacity="0" result="BackgroundImageFix"/>
<feColorMatrix in="SourceAlpha" type="matrix" values="0 0 0 0 0 0 0 0 0 0 0 0 0 0 0 0 0 0 127 0" result="hardAlpha"/>
<feOffset dy="4"/>
<feGaussianBlur stdDeviation="2"/>
<feComposite in2="hardAlpha" operator="out"/>
<feColorMatrix type="matrix" values="0 0 0 0 0 0 0 0 0 0 0 0 0 0 0 0 0 0 0.25 0"/>
<feBlend mode="normal" in2="BackgroundImageFix" result="effect1_dropShadow_3398_2907"/>
<feBlend mode="normal" in="SourceGraphic" in2="effect1_dropShadow_3398_2907" result="shape"/>
</filter>
</defs>
</svg>
