<svg width="179" height="40" viewBox="0 0 179 40" fill="none" xmlns="http://www.w3.org/2000/svg">
<path d="M49.4453 23.6641C49.4453 26.4766 51.5195 28.375 54.5664 28.375C57.8594 28.375 59.8281 26.4297 59.8281 23.0781V11.0898H57.2031V23.0664C57.2031 25 56.2656 26.0312 54.543 26.0312C53.0781 26.0312 52.0586 25.0703 52.0234 23.6641H49.4453Z" fill="white"/>
<path d="M67.9727 28.2344C71.5 28.2344 73.8203 25.8086 73.8203 21.8359C73.8203 17.875 71.4883 15.4492 67.9727 15.4492C64.457 15.4492 62.125 17.875 62.125 21.8359C62.125 25.8086 64.4453 28.2344 67.9727 28.2344ZM67.9727 26.1484C65.9922 26.1484 64.7031 24.5781 64.7031 21.8359C64.7031 19.1055 65.9922 17.5352 67.9727 17.5352C69.9531 17.5352 71.2422 19.1055 71.2422 21.8359C71.2422 24.5781 69.9648 26.1484 67.9727 26.1484Z" fill="white"/>
<path d="M75.5547 19.1641C75.5547 20.8867 76.6797 22.0469 78.9062 22.5859L81.1094 23.125C82.3984 23.4531 82.8672 23.8867 82.8672 24.6719C82.8672 25.668 81.9297 26.3008 80.4062 26.3008C78.8594 26.3008 77.9453 25.6445 77.7461 24.4609H75.2383C75.4375 26.7227 77.3711 28.2344 80.2891 28.2344C83.3125 28.2344 85.4102 26.6875 85.4102 24.4375C85.4102 22.6211 84.4727 21.6836 81.9883 21.0859L79.9141 20.6055C78.6367 20.2891 78.0273 19.7734 78.0273 19.0117C78.0273 18.0391 78.9414 17.3711 80.3125 17.3711C81.7305 17.3711 82.6328 18.0625 82.75 19.1758H85.1289C85.0469 16.9844 83.125 15.4492 80.3828 15.4492C77.5 15.4492 75.5547 16.9609 75.5547 19.1641Z" fill="white"/>
<path d="M92.5352 17.4883C94.3047 17.4883 95.5 18.8125 95.5586 20.6992H89.3945C89.5234 18.8359 90.7656 17.4883 92.5352 17.4883ZM95.5469 24.3789C95.207 25.457 94.1406 26.1836 92.6992 26.1836C90.6719 26.1836 89.3828 24.7656 89.3828 22.6211V22.4688H98.0898V21.6016C98.0898 17.8633 95.957 15.4492 92.5352 15.4492C89.0547 15.4492 86.8281 18.0273 86.8281 21.8945C86.8281 25.7852 89.0195 28.2344 92.6406 28.2344C95.4648 28.2344 97.5977 26.6289 97.9492 24.3789H95.5469Z" fill="white"/>
<path d="M106.48 15.4727C104.699 15.4727 103.281 16.375 102.555 17.793H102.508V15.6719H100.059V32.0781H102.59V25.9727H102.648C103.352 27.3438 104.758 28.2109 106.527 28.2109C109.621 28.2109 111.672 25.7383 111.672 21.8359C111.672 17.9336 109.609 15.4727 106.48 15.4727ZM105.812 26.0664C103.867 26.0664 102.578 24.4023 102.578 21.8359C102.578 19.293 103.879 17.6055 105.812 17.6055C107.816 17.6055 109.07 19.2578 109.07 21.8359C109.07 24.4258 107.816 26.0664 105.812 26.0664Z" fill="white"/>
<path d="M113.723 28H116.254V20.875C116.254 18.9297 117.402 17.6406 119.277 17.6406C121.059 17.6406 121.973 18.7305 121.973 20.5469V28H124.516V20.0547C124.516 17.2656 122.898 15.4609 120.191 15.4609C118.316 15.4609 116.969 16.293 116.289 17.7344H116.23V11.0898H113.723V28Z" fill="white"/>
<path d="M134.758 22.2812V19.9961H127.07V22.2812H134.758Z" fill="white"/>
<path d="M148.176 25.7266H140.301V11.0898H137.676V28H148.176V25.7266Z" fill="white"/>
<path d="M154.973 17.4883C156.742 17.4883 157.938 18.8125 157.996 20.6992H151.832C151.961 18.8359 153.203 17.4883 154.973 17.4883ZM157.984 24.3789C157.645 25.457 156.578 26.1836 155.137 26.1836C153.109 26.1836 151.82 24.7656 151.82 22.6211V22.4688H160.527V21.6016C160.527 17.8633 158.395 15.4492 154.973 15.4492C151.492 15.4492 149.266 18.0273 149.266 21.8945C149.266 25.7852 151.457 28.2344 155.078 28.2344C157.902 28.2344 160.035 26.6289 160.387 24.3789H157.984Z" fill="white"/>
<path d="M166.809 26.207C165.449 26.207 164.559 25.5039 164.559 24.4258C164.559 23.3711 165.414 22.7031 166.926 22.5977L169.961 22.4102V23.3828C169.961 24.9883 168.578 26.207 166.809 26.207ZM166.105 28.2109C167.723 28.2109 169.281 27.3438 169.996 25.9727H170.055V28H172.48V19.5039C172.48 17.0312 170.57 15.4492 167.582 15.4492C164.535 15.4492 162.637 17.0898 162.496 19.3164H164.887C165.109 18.2148 166.023 17.5117 167.488 17.5117C169.035 17.5117 169.961 18.332 169.961 19.7031V20.6523L166.586 20.8516C163.656 21.0156 162.004 22.3398 162.004 24.4961C162.004 26.7109 163.691 28.2109 166.105 28.2109Z" fill="white"/>
<path d="M175.035 28H177.566V11.0898H175.035V28Z" fill="white"/>
<rect width="39" height="39" rx="8" fill="#1B1E20"/>
<g filter="url(#filter0_d_3661_2542)">
<path fill-rule="evenodd" clip-rule="evenodd" d="M15.6242 17.6582L16.2634 19.5347L11.3562 22.3116L17.6133 26.538V28.8436L7.49316 22.2593L15.6242 17.6582Z" fill="#0F76E5"/>
<path fill-rule="evenodd" clip-rule="evenodd" d="M17.287 28.8572L17.2855 10.479L19.0172 9.86592L19.2543 28.0038L17.287 28.8572Z" fill="#0F76E5"/>
</g>
<g filter="url(#filter1_d_3661_2542)">
<path fill-rule="evenodd" clip-rule="evenodd" d="M21.5693 28.8432V10.8857L19.7431 9.89648V28.0031L21.5693 28.8432Z" fill="#0F76E5"/>
<path fill-rule="evenodd" clip-rule="evenodd" d="M31.4612 25.6475H20.2997L19.7432 27.778H29.9296L31.4612 25.6475Z" fill="#0F76E5"/>
</g>
<path d="M12.5529 4.875V4.875C8.58166 4.875 5.3623 8.09435 5.3623 12.0656V12.0656M26.9342 33.6375V33.6375C30.9055 33.6375 34.1248 30.4181 34.1248 26.4469V26.4469" stroke="white"/>
<defs>
<filter id="filter0_d_3661_2542" x="3.49316" y="9.86621" width="19.7607" height="26.9912" filterUnits="userSpaceOnUse" color-interpolation-filters="sRGB">
<feFlood flood-opacity="0" result="BackgroundImageFix"/>
<feColorMatrix in="SourceAlpha" type="matrix" values="0 0 0 0 0 0 0 0 0 0 0 0 0 0 0 0 0 0 127 0" result="hardAlpha"/>
<feOffset dy="4"/>
<feGaussianBlur stdDeviation="2"/>
<feComposite in2="hardAlpha" operator="out"/>
<feColorMatrix type="matrix" values="0 0 0 0 0 0 0 0 0 0 0 0 0 0 0 0 0 0 0.25 0"/>
<feBlend mode="normal" in2="BackgroundImageFix" result="effect1_dropShadow_3661_2542"/>
<feBlend mode="normal" in="SourceGraphic" in2="effect1_dropShadow_3661_2542" result="shape"/>
</filter>
<filter id="filter1_d_3661_2542" x="15.7432" y="9.89648" width="19.7178" height="26.9463" filterUnits="userSpaceOnUse" color-interpolation-filters="sRGB">
<feFlood flood-opacity="0" result="BackgroundImageFix"/>
<feColorMatrix in="SourceAlpha" type="matrix" values="0 0 0 0 0 0 0 0 0 0 0 0 0 0 0 0 0 0 127 0" result="hardAlpha"/>
<feOffset dy="4"/>
<feGaussianBlur stdDeviation="2"/>
<feComposite in2="hardAlpha" operator="out"/>
<feColorMatrix type="matrix" values="0 0 0 0 0 0 0 0 0 0 0 0 0 0 0 0 0 0 0.25 0"/>
<feBlend mode="normal" in2="BackgroundImageFix" result="effect1_dropShadow_3661_2542"/>
<feBlend mode="normal" in="SourceGraphic" in2="effect1_dropShadow_3661_2542" result="shape"/>
</filter>
</defs>
</svg>
