<svg width="26" height="40" viewBox="0 0 26 40" fill="none" xmlns="http://www.w3.org/2000/svg">
<g clip-path="url(#clip0_3203_2218)">
<path d="M6.5 40.0013C10.088 40.0013 13 37.0146 13 33.3346V26.668H6.5C2.912 26.668 0 29.6546 0 33.3346C0 37.0146 2.912 40.0013 6.5 40.0013Z" fill="#0ACF83"/>
<path d="M0 19.9987C0 16.3187 2.912 13.332 6.5 13.332H13V26.6654H6.5C2.912 26.6654 0 23.6787 0 19.9987Z" fill="#A259FF"/>
<path d="M0 6.66667C0 2.98667 2.912 0 6.5 0H13V13.3333H6.5C2.912 13.3333 0 10.3467 0 6.66667Z" fill="#F24E1E"/>
<path d="M13 0H19.5C23.088 0 26 2.98667 26 6.66667C26 10.3467 23.088 13.3333 19.5 13.3333H13V0Z" fill="#FF7262"/>
<path d="M26 19.9987C26 23.6787 23.088 26.6654 19.5 26.6654C15.912 26.6654 13 23.6787 13 19.9987C13 16.3187 15.912 13.332 19.5 13.332C23.088 13.332 26 16.3187 26 19.9987Z" fill="#1ABCFE"/>
</g>
<defs>
<clipPath id="clip0_3203_2218">
<rect width="26" height="40" fill="white"/>
</clipPath>
</defs>
</svg>
