<svg width="90" height="80" viewBox="0 0 90 80" fill="none" xmlns="http://www.w3.org/2000/svg">
<g clip-path="url(#clip0_3584_2621)">
<path d="M75.8588 54.4324C76.2384 54.2105 76.5539 53.8911 76.7738 53.5061C76.994 53.1204 77.1104 52.6826 77.1113 52.2367L77.1563 37.5299C77.1571 37.084 77.2735 36.6461 77.4938 36.2605C77.7146 35.875 78.0315 35.5555 78.4125 35.3341L86.25 30.7483C86.6302 30.5272 87.0608 30.4116 87.4988 30.4128C87.9374 30.4139 88.3681 30.5322 88.7475 30.7559C89.127 30.9779 89.4425 31.2973 89.6625 31.6822C89.8814 32.0682 89.9965 32.506 89.9963 32.9516V59.6892C89.9959 60.1363 89.8796 60.5755 89.6591 60.9623C89.4385 61.3491 89.1215 61.67 88.74 61.8926L59.1413 79.1763C58.7634 79.3963 58.3355 79.5121 57.9 79.5121C57.4645 79.5121 57.0366 79.3963 56.6588 79.1763L33.4313 65.6741C33.0485 65.4521 32.7303 65.1312 32.5088 64.744C32.2874 64.356 32.171 63.9154 32.1713 63.4669V49.9838C32.1713 49.9685 32.1863 49.9609 32.2013 49.9685C32.2163 49.9762 32.2313 49.9685 32.2313 49.9495V49.9342C32.2313 49.9228 32.2388 49.9152 32.2463 49.9075L51.3788 38.7383C51.3938 38.7269 51.3863 38.7002 51.3675 38.7002C51.3646 38.7002 51.3617 38.6995 51.3591 38.6982C51.3565 38.6968 51.3543 38.6949 51.3525 38.6925C51.3509 38.6904 51.3497 38.688 51.349 38.6853C51.3484 38.6827 51.3483 38.68 51.3488 38.6773L51.3863 25.461C51.388 25.0133 51.2735 24.5731 51.0542 24.1849C50.8349 23.7967 50.5187 23.4742 50.1375 23.25C49.7573 23.0268 49.3259 22.9093 48.8869 22.9093C48.4478 22.9093 48.0165 23.0268 47.6363 23.25L33.42 31.5831C33.0407 31.8048 32.6107 31.9216 32.1731 31.9216C31.7355 31.9216 31.3056 31.8048 30.9263 31.5831L16.6613 23.2348C16.2813 23.0131 15.8508 22.8968 15.4128 22.8974C14.9748 22.898 14.5446 23.0155 14.1653 23.2383C13.7859 23.461 13.4708 23.781 13.2514 24.1664C13.032 24.5518 12.916 24.989 12.915 25.4343V49.3243C12.9152 49.7697 12.8002 50.2072 12.5817 50.5933C12.3632 50.9793 12.0488 51.3002 11.67 51.5238C11.2917 51.7471 10.8624 51.8654 10.425 51.8669C9.98704 51.8682 9.55644 51.7525 9.17626 51.5315L1.26001 46.9303C0.877272 46.7083 0.559035 46.3875 0.337505 46.0002C0.115542 45.6111 -0.000918762 45.1691 5.45832e-06 44.7194L0.0712555 2.96617C0.0726153 2.52145 0.188697 2.08487 0.407915 1.7C0.627132 1.31514 0.941817 0.995455 1.32056 0.772861C1.6993 0.550266 2.12885 0.432547 2.56634 0.431453C3.00382 0.430358 3.43394 0.545927 3.81376 0.766624L30.9263 16.598C31.3056 16.8197 31.7355 16.9364 32.1731 16.9364C32.6107 16.9364 33.0407 16.8197 33.42 16.598L60.525 0.766624C60.9051 0.545431 61.3358 0.429742 61.7738 0.431165C62.2124 0.432061 62.6431 0.550391 63.0225 0.774248C63.4025 0.997338 63.718 1.31812 63.9375 1.70438C64.1549 2.09085 64.2687 2.52858 64.2675 2.97379V44.7384C64.2675 45.1844 64.155 45.6228 63.9338 46.0116C63.7133 46.3984 63.3964 46.7192 63.015 46.9418L48.8213 55.252C48.4394 55.4756 48.1225 55.7978 47.9025 56.186C47.683 56.5731 47.5678 57.0123 47.5688 57.4592C47.5692 57.9064 47.6856 58.3455 47.9063 58.7324C48.1287 59.1202 48.4483 59.4412 48.8325 59.6625L56.6625 64.195C57.0399 64.4123 57.4663 64.5266 57.9 64.5267C58.337 64.5261 58.7663 64.4091 59.145 64.1874L75.8588 54.4286V54.4324ZM77.5013 16.9678C77.5008 17.4163 77.6173 17.8569 77.8388 18.2448C78.0622 18.6331 78.3832 18.9541 78.7688 19.1749C79.153 19.3956 79.5878 19.509 80.029 19.5037C80.4703 19.4983 80.9023 19.3744 81.2813 19.1444L88.785 14.57C89.155 14.3444 89.4612 14.0253 89.6738 13.6437C89.8874 13.2613 89.9998 12.8292 90 12.3895V3.0729C89.9991 2.62407 89.8814 2.18347 89.6588 1.79587C89.4356 1.40824 89.1153 1.08764 88.7306 0.866672C88.346 0.645706 87.9106 0.532269 87.4688 0.537902C87.0275 0.542933 86.5953 0.666559 86.2163 0.896233L78.7163 5.47067C78.3449 5.69572 78.0374 6.0149 77.8238 6.397C77.6116 6.77977 77.5005 7.21182 77.5013 7.65116V16.9716V16.9678Z" fill="#0074FF"/>
</g>
<defs>
<clipPath id="clip0_3584_2621">
<rect width="90" height="80" fill="white"/>
</clipPath>
</defs>
</svg>
