<svg width="39" height="40" viewBox="0 0 39 40" fill="none" xmlns="http://www.w3.org/2000/svg">
<path d="M6.61665 7.01291C7.85998 8.0229 8.32665 7.94624 10.6633 7.78957L32.6883 6.46791C33.1549 6.46791 32.7666 6.00124 32.6116 5.92457L28.9516 3.27958C28.2516 2.73625 27.3166 2.11292 25.5266 2.26792L4.20166 3.82458C3.42499 3.90125 3.26833 4.29124 3.57832 4.60124L6.61665 7.01291ZM7.93831 12.1462V35.3195C7.93831 36.5645 8.55998 37.0312 9.96164 36.9528L34.1666 35.5528C35.5682 35.4762 35.7249 34.6195 35.7249 33.6079V10.5896C35.7249 9.57957 35.3366 9.03457 34.4783 9.11123L9.18331 10.5896C8.24998 10.6679 7.93831 11.1346 7.93831 12.1446V12.1462ZM31.8333 13.3879C31.9883 14.0879 31.8333 14.7879 31.1333 14.8679L29.9666 15.1012V32.2079C28.9533 32.7529 28.0199 33.0645 27.2416 33.0645C25.9949 33.0645 25.6833 32.6745 24.7499 31.5095L17.1216 19.5329V31.1195L19.535 31.6662C19.535 31.6662 19.535 33.0662 17.5883 33.0662L12.2183 33.3762C12.0633 33.0662 12.2183 32.2879 12.7633 32.1329L14.1633 31.7445V16.4229L12.2216 16.2662C12.065 15.5662 12.455 14.5562 13.5433 14.4779L19.3033 14.0896L27.2433 26.2212V15.4879L25.2183 15.2562C25.0633 14.3996 25.6849 13.7779 26.4633 13.7012L31.8333 13.3879ZM2.41166 1.72458L24.5949 0.0912531C27.3183 -0.14208 28.0199 0.0129199 29.7316 1.25792L36.8132 6.23457C37.9799 7.08957 38.3699 7.3229 38.3699 8.25624V35.5528C38.3699 37.2628 37.7482 38.2762 35.5699 38.4295L9.80664 39.9862C8.17332 40.0645 7.39332 39.8312 6.53665 38.7412L1.32166 31.9745C0.388332 30.7295 0 29.7979 0 28.7079V4.44458C0 3.04625 0.623332 1.87792 2.41166 1.72458Z" fill="#060606"/>
</svg>
