<svg width="40" height="35" viewBox="0 0 40 35" fill="none" xmlns="http://www.w3.org/2000/svg">
<path d="M39.7176 17.5041C39.7176 14.9003 36.4794 12.4325 31.514 10.903C32.6606 5.8085 32.1515 1.75385 29.9071 0.455247C29.3632 0.148562 28.7477 -0.00580995 28.1245 0.00818789V1.79315C28.4905 1.79315 28.7848 1.86684 29.0321 2.00276C30.1136 2.62832 30.5837 5.00608 30.2177 8.06672C30.1299 8.82001 29.9868 9.6126 29.8111 10.4216C28.1483 10.0181 26.4607 9.72653 24.7595 9.54873C23.746 8.14088 22.6403 6.80274 21.4497 5.54321C24.0438 3.11632 26.4786 1.7866 28.1343 1.7866V0C25.9451 0 23.081 1.57044 20.1843 4.29374C17.2893 1.58845 14.4236 0.0327516 12.236 0.0327516V1.81771C13.8836 1.81771 16.3265 3.14088 18.9206 5.5514C17.8065 6.73045 16.6924 8.06672 15.6336 9.54873C13.9289 9.72456 12.2382 10.0189 10.5738 10.4297C10.3979 9.66302 10.2595 8.88806 10.1591 8.10766C9.78503 5.04538 10.2469 2.66762 11.322 2.03551C11.5595 1.89141 11.8701 1.8259 12.236 1.8259V0.0409395C11.5692 0.0409395 10.9626 0.185047 10.4389 0.487999C8.20253 1.7866 7.70159 5.83142 8.85472 10.9112C3.90553 12.4505 0.683594 14.9085 0.683594 17.5041C0.683594 20.1078 3.92179 22.5757 8.88725 24.1035C7.74062 29.1997 8.24969 33.2543 10.4941 34.5513C11.0113 34.8559 11.6164 35 12.2832 35C14.4724 35 17.3365 33.4296 20.2331 30.7063C23.1282 33.4132 25.9923 34.9673 28.1814 34.9673C28.8094 34.9806 29.4296 34.8258 29.9786 34.5186C32.215 33.2216 32.7159 29.1768 31.5628 24.097C36.4957 22.5675 39.7176 20.0997 39.7176 17.5041ZM29.3573 12.1607C29.0483 13.2314 28.6901 14.2871 28.2839 15.3245C27.619 14.0222 26.8889 12.7547 26.0964 11.5269C27.2267 11.6956 28.3164 11.9036 29.359 12.1607H29.3573ZM25.7142 20.6925C25.1185 21.7396 24.4787 22.7608 23.7966 23.7531C21.4094 23.9649 19.0085 23.9677 16.6209 23.7613C15.2513 21.7916 14.0536 19.7063 13.0411 17.5287C14.0521 15.3459 15.2447 13.2533 16.6062 11.2731C18.9928 11.0608 21.3932 11.0575 23.7804 11.2633C24.4407 12.2163 25.0864 13.2349 25.706 14.3092C26.3111 15.3572 26.8608 16.4217 27.3617 17.4959C26.8552 18.5832 26.3056 19.6496 25.7142 20.6925ZM28.2839 19.651C28.7133 20.7236 29.0809 21.7978 29.3817 22.8393C28.3408 23.0964 27.2414 23.3126 26.1045 23.4796C26.8937 22.2407 27.6211 20.9629 28.2839 19.651ZM20.2169 28.1991C19.4769 27.4295 18.7368 26.573 18.0049 25.6347C18.7206 25.6674 19.4525 25.692 20.1925 25.692C20.9406 25.692 21.6807 25.6756 22.4044 25.6347C21.6888 26.573 20.9488 27.4295 20.2169 28.1991ZM14.2967 23.4796C13.2001 23.3196 12.1114 23.1087 11.0341 22.8475C11.3285 21.8142 11.6944 20.7481 12.1076 19.6837C12.4345 20.3224 12.7776 20.9643 13.1517 21.6062C13.5258 22.2465 13.9064 22.8721 14.2967 23.4796ZM20.1762 6.80906C20.9162 7.57872 21.6563 8.43517 22.3881 9.37351C21.6725 9.34076 20.9406 9.31619 20.2006 9.31619C19.4525 9.31619 18.7124 9.33257 17.9887 9.37351C18.7043 8.43517 19.4443 7.57872 20.1762 6.80906ZM14.2886 11.5286C13.4996 12.7648 12.7722 14.0399 12.1092 15.349C11.6915 14.305 11.3252 13.2409 11.0113 12.1607C12.0523 11.9118 13.1517 11.6956 14.2886 11.5286ZM7.08843 21.5571C4.27147 20.3486 2.44988 18.7618 2.44988 17.5041C2.44988 16.2464 4.27147 14.6514 7.08843 13.4511C7.77152 13.1547 8.51968 12.8894 9.29223 12.6421C9.746 14.2109 10.3429 15.8452 11.0813 17.5205C10.3841 19.0961 9.79456 20.7178 9.31662 22.3743C8.56107 22.1387 7.81745 21.866 7.08843 21.5571ZM11.3692 33.0038C10.2876 32.3815 9.81756 30.0005 10.1835 26.9415C10.2713 26.1882 10.4145 25.394 10.5901 24.585C12.1482 24.9698 13.8511 25.2662 15.6418 25.4595C16.6553 26.8673 17.761 28.2054 18.9515 29.465C16.3574 31.8919 13.9226 33.2216 12.2669 33.2216C11.9546 33.225 11.6462 33.1508 11.3692 33.0054V33.0038ZM30.2421 26.9005C30.6162 29.9612 30.1543 32.3406 29.0792 32.9727C28.8418 33.1168 28.5311 33.1806 28.1652 33.1806C26.5176 33.1806 24.0747 31.8591 21.4806 29.447C22.6661 28.1927 23.7644 26.8576 24.7676 25.4513C26.4724 25.2754 28.163 24.9811 29.8274 24.5703C30.0112 25.3792 30.1527 26.1554 30.2421 26.9005ZM33.3047 21.5571C32.6216 21.8535 31.8734 22.1188 31.1009 22.3661C30.6145 20.7012 30.0168 19.0713 29.3118 17.4877C30.0437 15.8223 30.6308 14.1962 31.0765 12.6339C31.8344 12.8703 32.5807 13.143 33.3128 13.4511C36.1298 14.6596 37.9513 16.2464 37.9513 17.5041C37.9432 18.7618 36.1216 20.3568 33.3047 21.5571Z" fill="#00D8FF"/>
<path d="M20.1923 21.166C21.1568 21.166 22.0818 20.7803 22.7639 20.0936C23.4459 19.4069 23.829 18.4755 23.829 17.5044C23.829 16.5333 23.4459 15.6019 22.7639 14.9152C22.0818 14.2286 21.1568 13.8428 20.1923 13.8428C19.2278 13.8428 18.3028 14.2286 17.6208 14.9152C16.9388 15.6019 16.5557 16.5333 16.5557 17.5044C16.5557 18.4755 16.9388 19.4069 17.6208 20.0936C18.3028 20.7803 19.2278 21.166 20.1923 21.166Z" fill="#00D8FF"/>
</svg>
