<svg width="47" height="40" viewBox="0 0 47 40" fill="none" xmlns="http://www.w3.org/2000/svg">
<path d="M46.9998 20.0047C46.9998 17.029 43.1781 14.2086 37.3178 12.4606C38.6711 6.63828 38.0703 2.0044 35.4214 0.520283C34.7795 0.169785 34.0531 -0.00663994 33.3176 0.00935759V2.04931C33.7495 2.04931 34.0969 2.13353 34.3887 2.28887C35.6651 3.00379 36.2199 5.72124 35.788 9.21911C35.6843 10.08 35.5154 10.9858 35.3081 11.9104C33.3457 11.4493 31.3539 11.116 29.3461 10.9128C28.15 9.30387 26.845 7.77456 25.4399 6.3351C28.5015 3.5615 31.375 2.04183 33.3291 2.04183V0C30.7454 0 27.3652 1.79479 23.9465 4.90713C20.5298 1.81537 17.1476 0.0374304 14.5659 0.0374304V2.07739C16.5104 2.07739 19.3935 3.58958 22.4551 6.34445C21.1402 7.69195 19.8254 9.21911 18.5758 10.9128C16.5638 11.1138 14.5685 11.4502 12.6042 11.9197C12.3966 11.0434 12.2332 10.1578 12.1147 9.2659C11.6732 5.76615 12.2183 3.04871 13.4871 2.3263C13.7674 2.16161 14.134 2.08675 14.5659 2.08675V0.046788C13.7789 0.046788 13.0629 0.211482 12.4448 0.557713C9.80552 2.04183 9.21432 6.66448 10.5752 12.4699C4.73419 14.2292 0.931641 17.0383 0.931641 20.0047C0.931641 22.9804 4.75338 25.8008 10.6136 27.5469C9.26038 33.3711 9.86119 38.005 12.5101 39.4872C13.1205 39.8353 13.8346 40 14.6216 40C17.2052 40 20.5855 38.2052 24.0041 35.0929C27.4208 38.1865 30.8011 39.9626 33.3848 39.9626C34.1259 39.9778 34.8579 39.8009 35.5058 39.4498C38.1451 37.9675 38.7363 33.3449 37.3754 27.5394C43.1973 25.7914 46.9998 22.971 46.9998 20.0047ZM34.7726 13.8979C34.4078 15.1216 33.9851 16.3282 33.5057 17.5137C32.7209 16.0254 31.8592 14.5768 30.9239 13.1736C32.258 13.3664 33.5441 13.6041 34.7745 13.8979H34.7726ZM30.4729 23.6485C29.7698 24.8453 29.0147 26.0123 28.2098 27.1464C25.3924 27.3885 22.5588 27.3916 19.7409 27.1558C18.1246 24.9047 16.711 22.5214 15.5161 20.0328C16.7092 17.5382 18.1167 15.1466 19.7236 12.8835C22.5403 12.6409 25.3732 12.6372 28.1906 12.8723C28.9699 13.9615 29.7319 15.1256 30.4633 16.3533C31.1773 17.5511 31.8261 18.7676 32.4173 19.9953C31.8196 21.2379 31.1709 22.4566 30.4729 23.6485ZM33.5057 22.4582C34.0124 23.6841 34.4462 24.9118 34.8014 26.1021C33.5729 26.3959 32.2753 26.643 30.9335 26.8339C31.865 25.4179 32.7234 23.9575 33.5057 22.4582ZM23.9849 32.2276C23.1116 31.348 22.2382 30.3692 21.3744 29.2968C22.219 29.3342 23.0828 29.3623 23.9561 29.3623C24.8391 29.3623 25.7125 29.3436 26.5667 29.2968C25.7221 30.3692 24.8487 31.348 23.9849 32.2276ZM16.9979 26.8339C15.7037 26.651 14.4188 26.41 13.1474 26.1114C13.4948 24.9305 13.9267 23.7122 14.4143 22.4957C14.8001 23.2256 15.2051 23.9592 15.6466 24.6928C16.0881 25.4246 16.5372 26.1395 16.9979 26.8339ZM23.9369 7.78178C24.8103 8.6614 25.6837 9.6402 26.5475 10.7126C25.7029 10.6752 24.8391 10.6471 23.9657 10.6471C23.0828 10.6471 22.2094 10.6658 21.3552 10.7126C22.1998 9.6402 23.0732 8.6614 23.9369 7.78178ZM16.9883 13.1755C16.0571 14.5884 15.1987 16.0456 14.4162 17.5418C13.9233 16.3486 13.4909 15.1325 13.1205 13.8979C14.349 13.6134 15.6466 13.3664 16.9883 13.1755ZM8.49066 24.6367C5.16607 23.2555 3.01623 21.442 3.01623 20.0047C3.01623 18.5674 5.16607 16.7445 8.49066 15.3727C9.29685 15.0339 10.1798 14.7307 11.0916 14.4481C11.6271 16.2411 12.3316 18.1088 13.2031 20.0234C12.3803 21.8241 11.6844 23.6775 11.1204 25.5706C10.2287 25.3014 9.35105 24.9897 8.49066 24.6367ZM13.5428 37.7186C12.2663 37.0074 11.7116 34.2862 12.1435 30.7902C12.2471 29.9293 12.4161 29.0217 12.6234 28.0971C14.4622 28.5369 16.472 28.8757 18.5854 29.0965C19.7815 30.7054 21.0865 32.2348 22.4916 33.6743C19.4299 36.4479 16.5564 37.9675 14.6024 37.9675C14.2337 37.9715 13.8698 37.8866 13.5428 37.7205V37.7186ZM35.8168 30.7435C36.2583 34.2413 35.7131 36.9607 34.4443 37.6831C34.1641 37.8478 33.7974 37.9207 33.3656 37.9207C31.4211 37.9207 28.538 36.4104 25.4764 33.6537C26.8756 32.2202 28.1717 30.6944 29.3557 29.0872C31.3677 28.8862 33.363 28.5498 35.3273 28.0803C35.5442 29.0048 35.7112 29.8919 35.8168 30.7435ZM39.4312 24.6367C38.625 24.9754 37.742 25.2786 36.8303 25.5612C36.2563 23.6585 35.5509 21.7958 34.7188 19.986C35.5826 18.0826 36.2755 16.2242 36.8015 14.4388C37.696 14.7089 38.5768 15.0205 39.4408 15.3727C42.7654 16.7538 44.9152 18.5674 44.9152 20.0047C44.9056 21.442 42.7558 23.2649 39.4312 24.6367Z" fill="#00D8FF"/>
<path d="M23.9561 24.1898C25.0944 24.1898 26.1861 23.7489 26.991 22.9641C27.7959 22.1793 28.2481 21.1149 28.2481 20.005C28.2481 18.8952 27.7959 17.8308 26.991 17.046C26.1861 16.2612 25.0944 15.8203 23.9561 15.8203C22.8178 15.8203 21.7261 16.2612 20.9212 17.046C20.1163 17.8308 19.6641 18.8952 19.6641 20.005C19.6641 21.1149 20.1163 22.1793 20.9212 22.9641C21.7261 23.7489 22.8178 24.1898 23.9561 24.1898Z" fill="#00D8FF"/>
</svg>
