<svg width="80" height="80" viewBox="0 0 80 80" fill="none" xmlns="http://www.w3.org/2000/svg">
<g clip-path="url(#clip0_3584_2611)">
<path d="M45.8582 78.8565C45.9782 78.5851 46.2811 78.3965 46.5011 78.1679C49.8582 74.6479 53.244 71.1593 56.5554 67.5965C57.5916 66.6395 58.3923 65.4557 58.895 64.1377C59.3976 62.8197 59.5884 61.4033 59.4525 59.9993C59.3486 59.3981 59.2122 58.803 59.044 58.2165C58.1411 59.0736 57.3011 59.8536 56.4554 60.6393C55.1411 61.8622 53.8325 63.0908 52.5068 64.2993C51.7251 65.0964 50.72 65.6375 49.6242 65.8513C48.5285 66.065 47.3936 65.9413 46.3697 65.4965C45.3331 65.1157 44.4312 64.4388 43.776 63.5499C43.1208 62.6611 42.741 61.5993 42.684 60.4965C42.6532 60.3546 42.6122 60.2152 42.5611 60.0793C41.5525 60.9365 40.5868 61.7251 39.6297 62.5365L19.7354 79.3936C19.5982 79.5108 19.4497 79.6565 19.3211 79.7708H45.844L45.804 79.745C45.6611 79.645 45.7354 79.1193 45.8582 78.8565V78.8565ZM18.1068 78.8565C18.3427 78.5493 18.6275 78.2829 18.9497 78.0679L46.4811 54.7108C48.3592 53.1165 50.2287 51.5136 52.0897 49.9022C52.3196 49.7419 52.4998 49.5201 52.6097 49.2622C53.0548 47.3225 53.1179 45.3146 52.7954 43.3508C52.5097 43.5508 52.3554 43.6365 52.224 43.7765C49.9697 45.7936 47.7268 47.8279 45.4611 49.8336C44.7105 50.589 43.7398 51.087 42.6884 51.2559C41.637 51.4248 40.5591 51.2559 39.6097 50.7736C38.6411 50.3164 37.8305 49.5813 37.281 48.6619C36.7315 47.7425 36.4679 46.6804 36.524 45.6108V44.685C36.1097 44.9879 35.8068 45.1908 35.524 45.4193C24.5049 54.2422 13.4878 63.0584 2.47253 71.8679C1.97539 72.265 1.3811 73.1508 0.729671 72.2908C0.0782425 71.4308 1.06967 71.0765 1.56967 70.6765C13.3125 61.2536 25.0611 51.8393 36.8154 42.4336C38.7297 40.8993 38.8554 40.2565 37.6097 37.8193L36.8668 38.5165C34.8297 40.4108 32.7697 42.2793 30.764 44.205C29.9412 44.9986 28.9108 45.5434 27.7917 45.7763C26.6725 46.0092 25.5103 45.9208 24.4393 45.5214C23.3682 45.122 22.432 44.4277 21.7387 43.5189C21.0454 42.61 20.6233 41.5236 20.5211 40.385C20.1411 40.6708 19.8125 40.8793 19.5011 41.1222L2.07253 54.6308C1.77193 54.9256 1.42913 55.174 1.05539 55.3679C0.77331 55.4532 0.470407 55.438 0.198242 55.3251V79.785H18.0725C18.0061 79.6382 17.9746 79.4779 17.9805 79.3167C17.9865 79.1556 18.0297 78.9981 18.1068 78.8565V78.8565Z" fill="#FFCEBF"/>
<path d="M66.391 1.20913C65.9053 2.80056 65.4339 4.39484 65.0082 6.00341C64.6149 7.14015 64.6607 8.3828 65.1364 9.48756C65.6121 10.5923 66.4835 11.4794 67.5796 11.9748C70.9322 13.7371 74.7101 14.5287 78.4882 14.2606V1.48056C78.4462 1.20036 78.4617 0.914547 78.5339 0.640558C78.6139 0.485574 78.7148 0.342328 78.8339 0.214844H66.3796C66.571 0.437701 66.5053 0.82913 66.391 1.20913V1.20913Z" fill="#FF6196"/>
<path d="M41.3782 28.6634C41.319 30.0898 40.82 31.4631 39.9497 32.5948C36.8383 36.6112 33.2651 40.2477 29.3039 43.4291C28.6652 44.0204 27.8555 44.3942 26.9911 44.4969C26.1267 44.5995 25.252 44.4258 24.4925 44.0005C23.7365 43.6775 23.0991 43.1284 22.6679 42.4285C22.2366 41.7287 22.0326 40.9124 22.0839 40.092C22.1755 39.0843 22.5938 38.1341 23.2754 37.3862C27.7049 33.1626 32.5041 29.3444 37.6154 25.9777C37.9501 25.7152 38.3589 25.5645 38.784 25.5471C39.209 25.5297 39.6288 25.6463 39.9839 25.8805C40.4507 26.1703 40.8281 26.5838 41.0742 27.075C41.3203 27.5662 41.4255 28.116 41.3782 28.6634V28.6634ZM37.9554 45.9805C37.8891 45.349 37.9701 44.7106 38.1922 44.1157C38.4143 43.5208 38.7714 42.9855 39.2354 42.552C43.5725 38.5517 48.2257 34.9084 53.1497 31.6577C53.2982 31.5634 53.4354 31.4691 53.5982 31.372C54.0283 31.0614 54.5495 30.9028 55.0796 30.9209C55.6098 30.939 56.1189 31.1328 56.5268 31.472C56.9215 31.8063 57.2008 32.2565 57.3249 32.7587C57.449 33.2609 57.4117 33.7894 57.2182 34.2691C56.5953 36.3439 55.4456 38.2221 53.8811 39.7205C50.7037 42.8507 47.465 45.918 44.1668 48.9205C43.6701 49.4313 43.0176 49.7624 42.3121 49.8617C41.6066 49.961 40.8881 49.8229 40.2697 49.4691C39.6198 49.1314 39.0665 48.6341 38.6617 48.0239C38.2569 47.4136 38.0138 46.7105 37.9554 45.9805V45.9805ZM58.5725 47.8691C57.7725 48.7262 56.9497 49.5434 56.1811 50.4205C55.95 50.7595 55.7583 51.1238 55.6097 51.5062C56.0325 51.632 56.5268 51.9634 56.8697 51.8462C58.6154 51.2605 60.3182 50.5577 62.2354 49.8177C61.8182 50.7777 61.5039 51.6634 61.0611 52.4748C59.2367 55.5409 56.9519 58.3084 54.2868 60.6805C53.2735 61.6577 52.2211 62.592 51.1297 63.4834C50.5517 63.963 49.8567 64.2805 49.1157 64.4034C48.3747 64.5263 47.6144 64.4502 46.9125 64.1828C46.2107 63.9154 45.5924 63.4664 45.121 62.8816C44.6496 62.2969 44.342 61.5974 44.2297 60.8548C44.1839 60.4419 44.2204 60.024 44.3371 59.6253C44.4538 59.2266 44.6484 58.855 44.9097 58.532C48.7977 54.3098 53.2412 50.6353 58.1182 47.6091C58.1775 47.5861 58.2404 47.5735 58.3039 47.572L58.5725 47.8691Z" fill="#FF87AF"/>
<path d="M65.1264 36.4882L70.015 14.7739L73.4436 15.5768L71.675 20.9511C70.0236 25.9511 68.3522 30.9511 66.7407 35.9568C66.4264 36.8825 66.015 37.0539 65.1264 36.4882V36.4882ZM59.6064 49.2596C60.1236 47.2854 60.6379 45.4596 61.0722 43.6139C61.4954 41.824 62.3004 40.1467 63.4322 38.6968C64.1264 37.7854 64.9064 38.1482 65.7036 38.3454C66.4407 38.5254 66.6264 39.0654 66.6579 39.7739C66.7741 41.7334 66.1774 43.6687 64.9779 45.2225C63.5499 46.9928 61.704 48.3802 59.6064 49.2596V49.2596Z" fill="#FF6196"/>
<path d="M79.9799 2.55483C80.0225 1.9185 80.0062 1.2796 79.9313 0.646261C79.8723 0.469354 79.7556 0.317406 79.5999 0.214833C79.473 0.111702 79.3246 0.0384607 79.1656 0.000546961C79.0741 -0.0165959 78.9456 0.0776895 78.8227 0.211975C78.7037 0.33946 78.6027 0.482706 78.5227 0.63769C78.4506 0.911679 78.435 1.19749 78.477 1.47769V14.2548C74.6989 14.523 70.921 13.7314 67.5684 11.9691C66.4724 11.4737 65.601 10.5866 65.1252 9.48183C64.6495 8.37708 64.6038 7.13443 64.997 5.99769C65.4227 4.38912 65.8941 2.79483 66.3799 1.2034C66.4941 0.823404 66.5599 0.431975 66.3799 0.209118C66.2797 0.100629 66.1415 0.0351003 65.9941 0.0262614C65.8054 0.0282972 65.6226 0.0925744 65.4741 0.209118C65.2605 0.33692 65.0902 0.526079 64.9856 0.751976C64.4141 2.46626 63.9113 4.19769 63.4741 5.94626C63.3091 6.63532 63.2646 7.34775 63.3427 8.05198C63.4533 9.32619 63.9271 10.5419 64.7081 11.5548C65.489 12.5677 66.5442 13.3352 67.7484 13.7663C68.2884 13.992 68.6056 14.2148 68.4541 14.9263C68.2456 15.8291 68.0427 16.732 67.837 17.6377C66.437 23.7748 65.0446 29.9148 63.6599 36.0577C63.6208 36.3316 63.5004 36.5874 63.3141 36.792C62.4014 37.5174 61.6346 38.4094 61.0541 39.4205C60.3145 40.7549 59.8027 42.2034 59.5399 43.7063C59.4894 44.1856 59.3162 44.6439 59.0369 45.0368C58.7576 45.4297 58.3817 45.7439 57.9456 45.9491C56.7541 46.552 55.6599 47.332 54.337 48.1434C54.4252 46.5526 54.408 44.9577 54.2856 43.3691C54.1849 42.8805 54.2063 42.3745 54.3478 41.8961C54.4893 41.4176 54.7467 40.9815 55.097 40.6263C56.8396 38.8999 58.0817 36.7336 58.6913 34.3577C58.8734 33.8069 58.9233 33.2211 58.837 32.6474C58.7508 32.0738 58.5307 31.5285 58.1947 31.0557C57.8587 30.5828 57.4162 30.1957 56.9029 29.9255C56.3895 29.6554 55.8199 29.5098 55.2399 29.5005C54.3008 29.4901 53.3788 29.7521 52.5856 30.2548C49.8593 32.1166 47.1803 34.0467 44.5513 36.0434C42.9884 37.2205 41.517 38.5234 40.0027 39.7577C39.9374 39.6876 39.8808 39.6099 39.8341 39.5263C39.8052 39.3159 39.7485 39.1103 39.6656 38.9148C38.3999 36.9605 39.277 35.5405 40.6513 34.0805C42.083 32.5797 42.8742 30.5804 42.857 28.5063C42.9014 27.4495 42.5704 26.411 41.9227 25.5748C41.5777 25.1504 41.1524 24.7979 40.6713 24.5377C39.9878 24.1636 39.2063 24.0075 38.4316 24.0902C37.6569 24.173 36.926 24.4906 36.337 25.0005L35.5399 25.572C33.7199 26.8748 31.877 28.1434 30.1256 29.5377C27.5687 31.5791 25.0669 33.6884 22.6227 35.8634C21.4799 36.872 20.6456 38.2491 19.4599 39.1863C13.277 44.0691 7.02842 48.8634 0.802708 53.6891C0.588636 53.8168 0.391797 53.9714 0.216994 54.1491C0.198999 54.1751 0.183683 54.2029 0.17128 54.232C0.039851 54.5377 -0.0715773 55.0434 0.0827084 55.2291C0.120528 55.2694 0.166238 55.3015 0.216994 55.3234C0.489159 55.4364 0.792061 55.4515 1.07414 55.3663C1.44788 55.1724 1.79069 54.9239 2.09128 54.6291L19.5199 41.1205C19.8313 40.8777 20.1599 40.6577 20.5399 40.3834C20.642 41.5219 21.0641 42.6084 21.7574 43.5172C22.4507 44.4261 23.387 45.1203 24.458 45.5198C25.5291 45.9192 26.6913 46.0076 27.8104 45.7746C28.9295 45.5417 29.96 44.997 30.7827 44.2034C32.7827 42.2777 34.8484 40.4091 36.8856 38.5148L37.6284 37.8177C38.8741 40.2548 38.7484 40.8977 36.8341 42.432C25.0703 51.8453 13.3151 61.2605 1.56842 70.6777C1.06842 71.0777 0.0798515 71.4405 0.728423 72.292C1.37699 73.1434 1.97414 72.2663 2.47128 71.8691C13.4922 63.0672 24.5056 54.2539 35.5113 45.4291C35.797 45.2005 36.097 44.9977 36.5113 44.6948V45.6205C36.4553 46.6902 36.7188 47.7523 37.2683 48.6717C37.8178 49.5911 38.6284 50.3262 39.597 50.7834C40.5464 51.2657 41.6243 51.4346 42.6757 51.2657C43.7271 51.0968 44.6979 50.5988 45.4484 49.8434C47.7141 47.8434 49.957 45.8034 52.2113 43.7863C52.3541 43.6577 52.5199 43.5605 52.7827 43.3605C53.1052 45.3244 53.0421 47.3323 52.597 49.272C52.4871 49.5299 52.3069 49.7516 52.077 49.912C50.2141 51.5215 48.3446 53.1244 46.4684 54.7205L18.9484 78.0805C18.6262 78.2955 18.3415 78.5619 18.1056 78.8691C18.0303 79.0093 17.988 79.1648 17.9821 79.3237C17.9762 79.4827 18.0067 79.6409 18.0713 79.7863C18.2004 79.883 18.3496 79.9494 18.5079 79.9806C18.6662 80.0117 18.8294 80.0068 18.9856 79.9663C19.1088 79.9305 19.2221 79.867 19.317 79.7805C19.4599 79.6663 19.6027 79.5205 19.7313 79.4034L39.6256 62.5463C40.5827 61.7348 41.5484 60.9348 42.557 60.0891C42.6081 60.225 42.6491 60.3644 42.6799 60.5063C42.7369 61.6091 43.1167 62.6708 43.7719 63.5597C44.4271 64.4486 45.329 65.1255 46.3656 65.5063C47.3895 65.9511 48.5243 66.0748 49.6201 65.8611C50.7159 65.6473 51.721 65.1062 52.5027 64.3091C53.8284 63.1005 55.137 61.872 56.4513 60.6491C57.3084 59.8634 58.137 59.0748 59.0399 58.2263C59.2081 58.8127 59.3445 59.4079 59.4484 60.0091C59.5798 61.4085 59.3867 62.8193 58.8842 64.1319C58.3818 65.4446 57.5834 66.6237 56.5513 67.5777C53.2398 71.1434 49.8541 74.632 46.497 78.1491C46.277 78.3777 45.9741 78.5663 45.8541 78.8377C45.7341 79.1091 45.657 79.6405 45.7999 79.7548L45.8399 79.7805C46.1394 79.9262 46.4763 79.9771 46.8056 79.9263C46.8978 79.9073 46.9801 79.8556 47.037 79.7805C47.117 79.6977 47.1941 79.5948 47.2713 79.5177C49.9913 76.7063 52.7256 73.9091 55.4256 71.0777C56.5154 69.9735 57.54 68.8068 58.4941 67.5834C59.7383 66.206 60.5633 64.502 60.872 62.6718C61.1808 60.8416 60.9605 58.9613 60.237 57.252C60.1592 56.8709 60.2352 56.4745 60.4484 56.1491C60.6341 55.8291 60.8399 55.5177 61.0513 55.2091C61.7278 54.3307 62.2913 53.3708 62.7284 52.352C63.5732 49.8514 64.87 47.5271 66.5541 45.4948C67.3284 44.5132 67.8611 43.3633 68.1092 42.138C68.3574 40.9126 68.314 39.6461 67.9827 38.4405C67.8656 37.9822 67.8656 37.5018 67.9827 37.0434C69.4284 32.5663 70.917 28.1034 72.3913 23.6377L74.3627 17.6548L74.9713 15.8063C76.2684 15.8063 77.4913 15.7805 78.7084 15.8063C79.7199 15.8348 80.0284 15.3605 80.017 14.3777C79.957 10.4348 79.9799 6.49483 79.9799 2.55483V2.55483ZM29.3027 43.4291C28.6639 44.0204 27.8543 44.3942 26.9899 44.4969C26.1255 44.5995 25.2508 44.4258 24.4913 44.0005C23.7353 43.6776 23.0979 43.1284 22.6666 42.4286C22.2353 41.7287 22.0314 40.9124 22.0827 40.092C22.1742 39.0843 22.5926 38.1341 23.2741 37.3863C27.7037 33.1626 32.5029 29.3445 37.6141 25.9777C37.8931 25.7805 38.2105 25.6442 38.5456 25.5777C38.7703 25.5362 39.0008 25.5362 39.2256 25.5777C39.4948 25.6301 39.7516 25.7329 39.9827 25.8805C40.4499 26.1706 40.8276 26.5845 41.0737 27.0763C41.3199 27.568 41.4248 28.1184 41.377 28.6663C41.3178 30.0927 40.8188 31.466 39.9484 32.5977C36.8369 36.6131 33.2637 40.2486 29.3027 43.4291V43.4291ZM44.1598 48.9405C43.6631 49.4513 43.0107 49.7824 42.3052 49.8818C41.5996 49.9811 40.8811 49.8429 40.2627 49.4891C39.6117 49.1507 39.0577 48.652 38.6528 48.0402C38.2479 47.4283 38.0055 46.7235 37.9484 45.992C37.8821 45.3604 37.9632 44.7221 38.1853 44.1272C38.4074 43.5323 38.7645 42.997 39.2284 42.5634C43.5655 38.5631 48.2188 34.9199 53.1427 31.6691C53.2913 31.5748 53.4284 31.4805 53.5913 31.3834C54.0214 31.0729 54.5425 30.9142 55.0727 30.9323C55.6028 30.9504 56.1119 31.1443 56.5199 31.4834C56.9145 31.8177 57.1938 32.268 57.3179 32.7702C57.4421 33.2723 57.4047 33.8008 57.2113 34.2805C56.5883 36.3554 55.4386 38.2335 53.8741 39.732C50.7227 42.8805 47.4456 45.912 44.1656 48.9291L44.1598 48.9405ZM61.0484 52.4863C59.2265 55.5475 56.9457 58.3111 54.2856 60.6805C53.2722 61.6577 52.2199 62.592 51.1284 63.4834C50.5504 63.9631 49.8554 64.2806 49.1145 64.4035C48.3735 64.5263 47.6132 64.4502 46.9113 64.1828C46.2094 63.9154 45.5912 63.4664 45.1198 62.8817C44.6484 62.2969 44.3408 61.5975 44.2284 60.8548C44.1826 60.4419 44.2191 60.024 44.3358 59.6253C44.4526 59.2266 44.6472 58.855 44.9084 58.532C48.7965 54.3098 53.2399 50.6353 58.117 47.6091C58.1763 47.5861 58.2391 47.5736 58.3027 47.572L58.5884 47.8577C57.7884 48.7148 56.9656 49.532 56.197 50.4091C55.9659 50.7481 55.7742 51.1124 55.6256 51.4948C56.0484 51.6205 56.5427 51.952 56.8856 51.8348C58.2656 51.372 59.6227 50.8348 61.077 50.2634L62.2513 49.8063C61.8113 50.7777 61.497 51.6634 61.0541 52.4748L61.0484 52.4863ZM64.9713 45.2434C63.9055 46.6002 62.5697 47.721 61.0484 48.5348C60.5779 48.7977 60.0951 49.0434 59.5999 49.272C60.1084 47.3263 60.617 45.5234 61.0484 43.7005L61.0656 43.6263C61.4888 41.8363 62.2939 40.159 63.4256 38.7091C64.1199 37.7977 64.8999 38.1605 65.697 38.3577C66.4341 38.5377 66.6198 39.0777 66.6513 39.7863C66.7684 41.744 66.1738 43.6782 64.977 45.232L64.9713 45.2434ZM71.657 20.9577C70.0056 25.9577 68.3341 30.9577 66.7227 35.9634C66.4199 36.9034 66.0084 37.0748 65.1199 36.5091L69.357 17.672L70.0084 14.7805L73.437 15.5834L72.7484 17.672L71.657 20.9577Z" fill="black"/>
</g>
<defs>
<clipPath id="clip0_3584_2611">
<rect width="80" height="80" fill="white"/>
</clipPath>
</defs>
</svg>
